<mxfile host="app.diagrams.net" modified="2021-11-08T20:04:36.918Z" agent="5.0 (Macintosh; Intel Mac OS X 10_15_7) AppleWebKit/605.1.15 (KHTML, like Gecko) Version/15.1 Safari/605.1.15" etag="SnFnTRVxyw-9zBSXX7hV" version="15.7.0" type="github">
  <diagram id="3TLoZ07AutrMq-KuwH9l" name="Helium Fuel Block">
    <mxGraphModel dx="1577" dy="2502" grid="1" gridSize="10" guides="1" tooltips="1" connect="1" arrows="1" fold="1" page="1" pageScale="1" pageWidth="827" pageHeight="1169" math="0" shadow="0">
      <root>
        <mxCell id="0" />
        <mxCell id="1" parent="0" />
        <mxCell id="alUQvkPKiy3RBT4dOB0o-2" value="Helium Fuel Block Planetary Industry" style="swimlane;childLayout=stackLayout;resizeParent=1;resizeParentMax=0;horizontal=1;startSize=20;horizontalStack=0;" vertex="1" parent="1">
          <mxGeometry x="50" y="-10" width="1650" height="620" as="geometry" />
        </mxCell>
        <mxCell id="alUQvkPKiy3RBT4dOB0o-3" value="Output" style="swimlane;startSize=20;horizontal=0;" vertex="1" parent="alUQvkPKiy3RBT4dOB0o-2">
          <mxGeometry y="20" width="1650" height="120" as="geometry" />
        </mxCell>
        <mxCell id="alUQvkPKiy3RBT4dOB0o-14" value="Helium Fuel Block&lt;br&gt;Quantity: 40" style="rounded=0;whiteSpace=wrap;html=1;" vertex="1" parent="alUQvkPKiy3RBT4dOB0o-3">
          <mxGeometry x="900" y="30" width="120" height="60" as="geometry" />
        </mxCell>
        <mxCell id="alUQvkPKiy3RBT4dOB0o-4" value="Specialized" style="swimlane;startSize=20;horizontal=0;" vertex="1" parent="alUQvkPKiy3RBT4dOB0o-2">
          <mxGeometry y="140" width="1650" height="120" as="geometry" />
        </mxCell>
        <mxCell id="alUQvkPKiy3RBT4dOB0o-15" value="Robotics&lt;br&gt;x 1" style="rounded=0;whiteSpace=wrap;html=1;" vertex="1" parent="alUQvkPKiy3RBT4dOB0o-4">
          <mxGeometry x="280" y="30" width="120" height="60" as="geometry" />
        </mxCell>
        <mxCell id="alUQvkPKiy3RBT4dOB0o-5" value="Refined" style="swimlane;startSize=20;horizontal=0;" vertex="1" parent="alUQvkPKiy3RBT4dOB0o-2">
          <mxGeometry y="260" width="1650" height="120" as="geometry" />
        </mxCell>
        <mxCell id="alUQvkPKiy3RBT4dOB0o-26" value="Consumer Electronics&lt;br&gt;x 10" style="rounded=0;whiteSpace=wrap;html=1;" vertex="1" parent="alUQvkPKiy3RBT4dOB0o-5">
          <mxGeometry x="140" y="30" width="120" height="60" as="geometry" />
        </mxCell>
        <mxCell id="alUQvkPKiy3RBT4dOB0o-27" value="Mechanical Parts&lt;br&gt;x 10" style="rounded=0;whiteSpace=wrap;html=1;" vertex="1" parent="alUQvkPKiy3RBT4dOB0o-5">
          <mxGeometry x="420" y="30" width="120" height="60" as="geometry" />
        </mxCell>
        <mxCell id="alUQvkPKiy3RBT4dOB0o-12" value="Basic" style="swimlane;startSize=20;horizontal=0;" vertex="1" parent="alUQvkPKiy3RBT4dOB0o-2">
          <mxGeometry y="380" width="1650" height="120" as="geometry" />
        </mxCell>
        <mxCell id="alUQvkPKiy3RBT4dOB0o-28" value="Toxic Metals&lt;br&gt;x 80" style="rounded=0;whiteSpace=wrap;html=1;" vertex="1" parent="alUQvkPKiy3RBT4dOB0o-12">
          <mxGeometry x="70" y="30" width="120" height="60" as="geometry" />
        </mxCell>
        <mxCell id="alUQvkPKiy3RBT4dOB0o-29" value="Chiral Structures&lt;br&gt;x 80" style="rounded=0;whiteSpace=wrap;html=1;" vertex="1" parent="alUQvkPKiy3RBT4dOB0o-12">
          <mxGeometry x="210" y="30" width="120" height="60" as="geometry" />
        </mxCell>
        <mxCell id="alUQvkPKiy3RBT4dOB0o-30" value="Reactive Metals&lt;br&gt;x 40" style="rounded=0;whiteSpace=wrap;html=1;" vertex="1" parent="alUQvkPKiy3RBT4dOB0o-12">
          <mxGeometry x="350" y="30" width="120" height="60" as="geometry" />
        </mxCell>
        <mxCell id="alUQvkPKiy3RBT4dOB0o-31" value="Precious Metals&lt;br&gt;x 40" style="rounded=0;whiteSpace=wrap;html=1;" vertex="1" parent="alUQvkPKiy3RBT4dOB0o-12">
          <mxGeometry x="490" y="30" width="120" height="60" as="geometry" />
        </mxCell>
        <mxCell id="alUQvkPKiy3RBT4dOB0o-110" value="Oxygen&lt;br&gt;x 22" style="rounded=0;whiteSpace=wrap;html=1;" vertex="1" parent="alUQvkPKiy3RBT4dOB0o-12">
          <mxGeometry x="1510" y="30" width="120" height="60" as="geometry" />
        </mxCell>
        <mxCell id="alUQvkPKiy3RBT4dOB0o-13" value="Raw" style="swimlane;startSize=20;horizontal=0;" vertex="1" parent="alUQvkPKiy3RBT4dOB0o-2">
          <mxGeometry y="500" width="1650" height="120" as="geometry" />
        </mxCell>
        <mxCell id="alUQvkPKiy3RBT4dOB0o-32" value="Heavy Metals&lt;br&gt;x 12000" style="rounded=0;whiteSpace=wrap;html=1;" vertex="1" parent="alUQvkPKiy3RBT4dOB0o-13">
          <mxGeometry x="70" y="30" width="120" height="60" as="geometry" />
        </mxCell>
        <mxCell id="alUQvkPKiy3RBT4dOB0o-33" value="Non-CS Crystals&lt;br&gt;x 12000" style="rounded=0;whiteSpace=wrap;html=1;" vertex="1" parent="alUQvkPKiy3RBT4dOB0o-13">
          <mxGeometry x="210" y="30" width="120" height="60" as="geometry" />
        </mxCell>
        <mxCell id="alUQvkPKiy3RBT4dOB0o-41" value="Base Metals&lt;br&gt;x 6000" style="rounded=0;whiteSpace=wrap;html=1;" vertex="1" parent="alUQvkPKiy3RBT4dOB0o-13">
          <mxGeometry x="350" y="30" width="120" height="60" as="geometry" />
        </mxCell>
        <mxCell id="alUQvkPKiy3RBT4dOB0o-42" value="Noble Metals&lt;br&gt;x 6000" style="rounded=0;whiteSpace=wrap;html=1;" vertex="1" parent="alUQvkPKiy3RBT4dOB0o-13">
          <mxGeometry x="490" y="30" width="120" height="60" as="geometry" />
        </mxCell>
        <mxCell id="alUQvkPKiy3RBT4dOB0o-69" value="Enriched Uranium&lt;br&gt;x 4" style="rounded=0;whiteSpace=wrap;html=1;" vertex="1" parent="alUQvkPKiy3RBT4dOB0o-13">
          <mxGeometry x="730" y="-210" width="120" height="60" as="geometry" />
        </mxCell>
        <mxCell id="alUQvkPKiy3RBT4dOB0o-71" value="Toxic Metals&lt;br&gt;x 40" style="rounded=0;whiteSpace=wrap;html=1;" vertex="1" parent="alUQvkPKiy3RBT4dOB0o-13">
          <mxGeometry x="660" y="-90" width="120" height="60" as="geometry" />
        </mxCell>
        <mxCell id="alUQvkPKiy3RBT4dOB0o-72" value="Precious Metals&lt;br&gt;x 40" style="rounded=0;whiteSpace=wrap;html=1;" vertex="1" parent="alUQvkPKiy3RBT4dOB0o-13">
          <mxGeometry x="800" y="-90" width="120" height="60" as="geometry" />
        </mxCell>
        <mxCell id="alUQvkPKiy3RBT4dOB0o-81" style="edgeStyle=orthogonalEdgeStyle;rounded=0;orthogonalLoop=1;jettySize=auto;html=1;entryX=0.5;entryY=1;entryDx=0;entryDy=0;fillColor=#fff2cc;strokeColor=#d6b656;" edge="1" parent="alUQvkPKiy3RBT4dOB0o-13" source="alUQvkPKiy3RBT4dOB0o-72" target="alUQvkPKiy3RBT4dOB0o-69">
          <mxGeometry relative="1" as="geometry">
            <Array as="points">
              <mxPoint x="860" y="-100" />
              <mxPoint x="790" y="-100" />
            </Array>
          </mxGeometry>
        </mxCell>
        <mxCell id="alUQvkPKiy3RBT4dOB0o-75" value="Heavy Metals&lt;br&gt;x 6000" style="rounded=0;whiteSpace=wrap;html=1;" vertex="1" parent="alUQvkPKiy3RBT4dOB0o-13">
          <mxGeometry x="660" y="30" width="120" height="60" as="geometry" />
        </mxCell>
        <mxCell id="alUQvkPKiy3RBT4dOB0o-79" style="edgeStyle=orthogonalEdgeStyle;rounded=0;orthogonalLoop=1;jettySize=auto;html=1;entryX=0.5;entryY=1;entryDx=0;entryDy=0;fillColor=#f8cecc;strokeColor=#b85450;" edge="1" parent="alUQvkPKiy3RBT4dOB0o-13" source="alUQvkPKiy3RBT4dOB0o-75" target="alUQvkPKiy3RBT4dOB0o-71">
          <mxGeometry relative="1" as="geometry" />
        </mxCell>
        <mxCell id="alUQvkPKiy3RBT4dOB0o-76" value="Noble Metals&lt;br&gt;x 6000" style="rounded=0;whiteSpace=wrap;html=1;" vertex="1" parent="alUQvkPKiy3RBT4dOB0o-13">
          <mxGeometry x="800" y="30" width="120" height="60" as="geometry" />
        </mxCell>
        <mxCell id="alUQvkPKiy3RBT4dOB0o-80" style="edgeStyle=orthogonalEdgeStyle;rounded=0;orthogonalLoop=1;jettySize=auto;html=1;entryX=0.5;entryY=1;entryDx=0;entryDy=0;fillColor=#f8cecc;strokeColor=#b85450;" edge="1" parent="alUQvkPKiy3RBT4dOB0o-13" source="alUQvkPKiy3RBT4dOB0o-76" target="alUQvkPKiy3RBT4dOB0o-72">
          <mxGeometry relative="1" as="geometry" />
        </mxCell>
        <mxCell id="alUQvkPKiy3RBT4dOB0o-86" style="edgeStyle=orthogonalEdgeStyle;rounded=0;orthogonalLoop=1;jettySize=auto;html=1;fillColor=#fff2cc;strokeColor=#d6b656;" edge="1" parent="alUQvkPKiy3RBT4dOB0o-13" source="alUQvkPKiy3RBT4dOB0o-71">
          <mxGeometry relative="1" as="geometry">
            <mxPoint x="790" y="-150" as="targetPoint" />
            <Array as="points">
              <mxPoint x="720" y="-100" />
              <mxPoint x="790" y="-100" />
            </Array>
          </mxGeometry>
        </mxCell>
        <mxCell id="alUQvkPKiy3RBT4dOB0o-92" value="Mechanical Parts&lt;br&gt;x 4" style="rounded=0;whiteSpace=wrap;html=1;" vertex="1" parent="alUQvkPKiy3RBT4dOB0o-13">
          <mxGeometry x="1020" y="-210" width="120" height="60" as="geometry" />
        </mxCell>
        <mxCell id="alUQvkPKiy3RBT4dOB0o-93" value="Reactive Metals&lt;br&gt;x 40" style="rounded=0;whiteSpace=wrap;html=1;" vertex="1" parent="alUQvkPKiy3RBT4dOB0o-13">
          <mxGeometry x="950" y="-90" width="120" height="60" as="geometry" />
        </mxCell>
        <mxCell id="alUQvkPKiy3RBT4dOB0o-94" value="Precious Metals&lt;br&gt;x 40" style="rounded=0;whiteSpace=wrap;html=1;" vertex="1" parent="alUQvkPKiy3RBT4dOB0o-13">
          <mxGeometry x="1090" y="-90" width="120" height="60" as="geometry" />
        </mxCell>
        <mxCell id="alUQvkPKiy3RBT4dOB0o-95" style="edgeStyle=orthogonalEdgeStyle;rounded=0;orthogonalLoop=1;jettySize=auto;html=1;entryX=0.5;entryY=1;entryDx=0;entryDy=0;fillColor=#fff2cc;strokeColor=#d6b656;" edge="1" parent="alUQvkPKiy3RBT4dOB0o-13" source="alUQvkPKiy3RBT4dOB0o-94" target="alUQvkPKiy3RBT4dOB0o-92">
          <mxGeometry relative="1" as="geometry">
            <Array as="points">
              <mxPoint x="1150" y="-100" />
              <mxPoint x="1080" y="-100" />
            </Array>
          </mxGeometry>
        </mxCell>
        <mxCell id="alUQvkPKiy3RBT4dOB0o-96" value="Base Metals&lt;br&gt;x 6000" style="rounded=0;whiteSpace=wrap;html=1;" vertex="1" parent="alUQvkPKiy3RBT4dOB0o-13">
          <mxGeometry x="950" y="30" width="120" height="60" as="geometry" />
        </mxCell>
        <mxCell id="alUQvkPKiy3RBT4dOB0o-97" style="edgeStyle=orthogonalEdgeStyle;rounded=0;orthogonalLoop=1;jettySize=auto;html=1;entryX=0.5;entryY=1;entryDx=0;entryDy=0;fillColor=#f8cecc;strokeColor=#b85450;" edge="1" parent="alUQvkPKiy3RBT4dOB0o-13" source="alUQvkPKiy3RBT4dOB0o-96" target="alUQvkPKiy3RBT4dOB0o-93">
          <mxGeometry relative="1" as="geometry" />
        </mxCell>
        <mxCell id="alUQvkPKiy3RBT4dOB0o-98" value="Noble Metals&lt;br&gt;x 6000" style="rounded=0;whiteSpace=wrap;html=1;" vertex="1" parent="alUQvkPKiy3RBT4dOB0o-13">
          <mxGeometry x="1090" y="30" width="120" height="60" as="geometry" />
        </mxCell>
        <mxCell id="alUQvkPKiy3RBT4dOB0o-99" style="edgeStyle=orthogonalEdgeStyle;rounded=0;orthogonalLoop=1;jettySize=auto;html=1;entryX=0.5;entryY=1;entryDx=0;entryDy=0;fillColor=#f8cecc;strokeColor=#b85450;" edge="1" parent="alUQvkPKiy3RBT4dOB0o-13" source="alUQvkPKiy3RBT4dOB0o-98" target="alUQvkPKiy3RBT4dOB0o-94">
          <mxGeometry relative="1" as="geometry" />
        </mxCell>
        <mxCell id="alUQvkPKiy3RBT4dOB0o-100" style="edgeStyle=orthogonalEdgeStyle;rounded=0;orthogonalLoop=1;jettySize=auto;html=1;fillColor=#fff2cc;strokeColor=#d6b656;" edge="1" parent="alUQvkPKiy3RBT4dOB0o-13" source="alUQvkPKiy3RBT4dOB0o-93">
          <mxGeometry relative="1" as="geometry">
            <mxPoint x="1080" y="-150" as="targetPoint" />
            <Array as="points">
              <mxPoint x="1010" y="-100" />
              <mxPoint x="1080" y="-100" />
            </Array>
          </mxGeometry>
        </mxCell>
        <mxCell id="alUQvkPKiy3RBT4dOB0o-101" value="Coolant&lt;br&gt;x 9" style="rounded=0;whiteSpace=wrap;html=1;" vertex="1" parent="alUQvkPKiy3RBT4dOB0o-13">
          <mxGeometry x="1300" y="-210" width="120" height="60" as="geometry" />
        </mxCell>
        <mxCell id="alUQvkPKiy3RBT4dOB0o-102" value="Electrolytes&lt;br&gt;x 80" style="rounded=0;whiteSpace=wrap;html=1;" vertex="1" parent="alUQvkPKiy3RBT4dOB0o-13">
          <mxGeometry x="1230" y="-90" width="120" height="60" as="geometry" />
        </mxCell>
        <mxCell id="alUQvkPKiy3RBT4dOB0o-103" value="Water&lt;br&gt;x 80" style="rounded=0;whiteSpace=wrap;html=1;" vertex="1" parent="alUQvkPKiy3RBT4dOB0o-13">
          <mxGeometry x="1370" y="-90" width="120" height="60" as="geometry" />
        </mxCell>
        <mxCell id="alUQvkPKiy3RBT4dOB0o-104" style="edgeStyle=orthogonalEdgeStyle;rounded=0;orthogonalLoop=1;jettySize=auto;html=1;entryX=0.5;entryY=1;entryDx=0;entryDy=0;fillColor=#fff2cc;strokeColor=#d6b656;" edge="1" parent="alUQvkPKiy3RBT4dOB0o-13" source="alUQvkPKiy3RBT4dOB0o-103" target="alUQvkPKiy3RBT4dOB0o-101">
          <mxGeometry relative="1" as="geometry">
            <Array as="points">
              <mxPoint x="1430" y="-100" />
              <mxPoint x="1360" y="-100" />
            </Array>
          </mxGeometry>
        </mxCell>
        <mxCell id="alUQvkPKiy3RBT4dOB0o-105" value="Ionic Solutions&lt;br&gt;x 12000" style="rounded=0;whiteSpace=wrap;html=1;" vertex="1" parent="alUQvkPKiy3RBT4dOB0o-13">
          <mxGeometry x="1230" y="30" width="120" height="60" as="geometry" />
        </mxCell>
        <mxCell id="alUQvkPKiy3RBT4dOB0o-106" style="edgeStyle=orthogonalEdgeStyle;rounded=0;orthogonalLoop=1;jettySize=auto;html=1;entryX=0.5;entryY=1;entryDx=0;entryDy=0;fillColor=#f8cecc;strokeColor=#b85450;" edge="1" parent="alUQvkPKiy3RBT4dOB0o-13" source="alUQvkPKiy3RBT4dOB0o-105" target="alUQvkPKiy3RBT4dOB0o-102">
          <mxGeometry relative="1" as="geometry" />
        </mxCell>
        <mxCell id="alUQvkPKiy3RBT4dOB0o-107" value="Aqueous Liquids&lt;br&gt;x 12000" style="rounded=0;whiteSpace=wrap;html=1;" vertex="1" parent="alUQvkPKiy3RBT4dOB0o-13">
          <mxGeometry x="1370" y="30" width="120" height="60" as="geometry" />
        </mxCell>
        <mxCell id="alUQvkPKiy3RBT4dOB0o-108" style="edgeStyle=orthogonalEdgeStyle;rounded=0;orthogonalLoop=1;jettySize=auto;html=1;entryX=0.5;entryY=1;entryDx=0;entryDy=0;fillColor=#f8cecc;strokeColor=#b85450;" edge="1" parent="alUQvkPKiy3RBT4dOB0o-13" source="alUQvkPKiy3RBT4dOB0o-107" target="alUQvkPKiy3RBT4dOB0o-103">
          <mxGeometry relative="1" as="geometry" />
        </mxCell>
        <mxCell id="alUQvkPKiy3RBT4dOB0o-109" style="edgeStyle=orthogonalEdgeStyle;rounded=0;orthogonalLoop=1;jettySize=auto;html=1;fillColor=#fff2cc;strokeColor=#d6b656;" edge="1" parent="alUQvkPKiy3RBT4dOB0o-13" source="alUQvkPKiy3RBT4dOB0o-102">
          <mxGeometry relative="1" as="geometry">
            <mxPoint x="1360" y="-150" as="targetPoint" />
            <Array as="points">
              <mxPoint x="1290" y="-100" />
              <mxPoint x="1360" y="-100" />
            </Array>
          </mxGeometry>
        </mxCell>
        <mxCell id="alUQvkPKiy3RBT4dOB0o-111" value="Noble Gas&lt;br&gt;x 6000" style="rounded=0;whiteSpace=wrap;html=1;" vertex="1" parent="alUQvkPKiy3RBT4dOB0o-13">
          <mxGeometry x="1510" y="30" width="120" height="60" as="geometry" />
        </mxCell>
        <mxCell id="alUQvkPKiy3RBT4dOB0o-34" style="edgeStyle=orthogonalEdgeStyle;rounded=0;orthogonalLoop=1;jettySize=auto;html=1;entryX=0.5;entryY=1;entryDx=0;entryDy=0;fillColor=#f8cecc;strokeColor=#b85450;" edge="1" parent="alUQvkPKiy3RBT4dOB0o-2" source="alUQvkPKiy3RBT4dOB0o-32" target="alUQvkPKiy3RBT4dOB0o-28">
          <mxGeometry relative="1" as="geometry" />
        </mxCell>
        <mxCell id="alUQvkPKiy3RBT4dOB0o-35" style="edgeStyle=orthogonalEdgeStyle;rounded=0;orthogonalLoop=1;jettySize=auto;html=1;entryX=0.5;entryY=1;entryDx=0;entryDy=0;fillColor=#f8cecc;strokeColor=#b85450;" edge="1" parent="alUQvkPKiy3RBT4dOB0o-2" source="alUQvkPKiy3RBT4dOB0o-33" target="alUQvkPKiy3RBT4dOB0o-29">
          <mxGeometry relative="1" as="geometry" />
        </mxCell>
        <mxCell id="alUQvkPKiy3RBT4dOB0o-36" style="edgeStyle=orthogonalEdgeStyle;rounded=0;orthogonalLoop=1;jettySize=auto;html=1;entryX=0.5;entryY=1;entryDx=0;entryDy=0;fillColor=#fff2cc;strokeColor=#d6b656;" edge="1" parent="alUQvkPKiy3RBT4dOB0o-2" source="alUQvkPKiy3RBT4dOB0o-29" target="alUQvkPKiy3RBT4dOB0o-26">
          <mxGeometry relative="1" as="geometry">
            <Array as="points">
              <mxPoint x="270" y="400" />
              <mxPoint x="200" y="400" />
            </Array>
          </mxGeometry>
        </mxCell>
        <mxCell id="alUQvkPKiy3RBT4dOB0o-38" style="edgeStyle=orthogonalEdgeStyle;rounded=0;orthogonalLoop=1;jettySize=auto;html=1;entryX=0.5;entryY=1;entryDx=0;entryDy=0;fillColor=#ffe6cc;strokeColor=#d79b00;" edge="1" parent="alUQvkPKiy3RBT4dOB0o-2" source="alUQvkPKiy3RBT4dOB0o-26" target="alUQvkPKiy3RBT4dOB0o-15">
          <mxGeometry relative="1" as="geometry" />
        </mxCell>
        <mxCell id="alUQvkPKiy3RBT4dOB0o-43" style="edgeStyle=orthogonalEdgeStyle;rounded=0;orthogonalLoop=1;jettySize=auto;html=1;entryX=0.5;entryY=1;entryDx=0;entryDy=0;fillColor=#f8cecc;strokeColor=#b85450;" edge="1" parent="alUQvkPKiy3RBT4dOB0o-2" source="alUQvkPKiy3RBT4dOB0o-41" target="alUQvkPKiy3RBT4dOB0o-30">
          <mxGeometry relative="1" as="geometry" />
        </mxCell>
        <mxCell id="alUQvkPKiy3RBT4dOB0o-44" style="edgeStyle=orthogonalEdgeStyle;rounded=0;orthogonalLoop=1;jettySize=auto;html=1;entryX=0.5;entryY=1;entryDx=0;entryDy=0;fillColor=#f8cecc;strokeColor=#b85450;" edge="1" parent="alUQvkPKiy3RBT4dOB0o-2" source="alUQvkPKiy3RBT4dOB0o-42" target="alUQvkPKiy3RBT4dOB0o-31">
          <mxGeometry relative="1" as="geometry" />
        </mxCell>
        <mxCell id="alUQvkPKiy3RBT4dOB0o-45" style="edgeStyle=orthogonalEdgeStyle;rounded=0;orthogonalLoop=1;jettySize=auto;html=1;entryX=0.5;entryY=1;entryDx=0;entryDy=0;fillColor=#fff2cc;strokeColor=#d6b656;" edge="1" parent="alUQvkPKiy3RBT4dOB0o-2" source="alUQvkPKiy3RBT4dOB0o-31" target="alUQvkPKiy3RBT4dOB0o-27">
          <mxGeometry relative="1" as="geometry">
            <Array as="points">
              <mxPoint x="550" y="400" />
              <mxPoint x="480" y="400" />
            </Array>
          </mxGeometry>
        </mxCell>
        <mxCell id="alUQvkPKiy3RBT4dOB0o-113" style="edgeStyle=orthogonalEdgeStyle;rounded=0;orthogonalLoop=1;jettySize=auto;html=1;entryX=0.5;entryY=1;entryDx=0;entryDy=0;fillColor=#ffe6cc;strokeColor=#d79b00;" edge="1" parent="alUQvkPKiy3RBT4dOB0o-2" source="alUQvkPKiy3RBT4dOB0o-69" target="alUQvkPKiy3RBT4dOB0o-14">
          <mxGeometry relative="1" as="geometry">
            <Array as="points">
              <mxPoint x="790" y="210" />
              <mxPoint x="960" y="210" />
            </Array>
          </mxGeometry>
        </mxCell>
        <mxCell id="alUQvkPKiy3RBT4dOB0o-114" style="edgeStyle=orthogonalEdgeStyle;rounded=0;orthogonalLoop=1;jettySize=auto;html=1;entryX=0.5;entryY=1;entryDx=0;entryDy=0;fillColor=#ffe6cc;strokeColor=#d79b00;" edge="1" parent="alUQvkPKiy3RBT4dOB0o-2" source="alUQvkPKiy3RBT4dOB0o-92" target="alUQvkPKiy3RBT4dOB0o-14">
          <mxGeometry relative="1" as="geometry">
            <Array as="points">
              <mxPoint x="1080" y="210" />
              <mxPoint x="960" y="210" />
            </Array>
          </mxGeometry>
        </mxCell>
        <mxCell id="alUQvkPKiy3RBT4dOB0o-115" style="edgeStyle=orthogonalEdgeStyle;rounded=0;orthogonalLoop=1;jettySize=auto;html=1;entryX=0.5;entryY=1;entryDx=0;entryDy=0;fillColor=#ffe6cc;strokeColor=#d79b00;" edge="1" parent="alUQvkPKiy3RBT4dOB0o-2" source="alUQvkPKiy3RBT4dOB0o-101" target="alUQvkPKiy3RBT4dOB0o-14">
          <mxGeometry relative="1" as="geometry">
            <Array as="points">
              <mxPoint x="1360" y="210" />
              <mxPoint x="960" y="210" />
            </Array>
          </mxGeometry>
        </mxCell>
        <mxCell id="alUQvkPKiy3RBT4dOB0o-117" style="edgeStyle=orthogonalEdgeStyle;rounded=0;orthogonalLoop=1;jettySize=auto;html=1;entryX=1;entryY=0.5;entryDx=0;entryDy=0;fillColor=#fff2cc;strokeColor=#d6b656;" edge="1" parent="alUQvkPKiy3RBT4dOB0o-2" source="alUQvkPKiy3RBT4dOB0o-110" target="alUQvkPKiy3RBT4dOB0o-14">
          <mxGeometry relative="1" as="geometry">
            <Array as="points">
              <mxPoint x="1570" y="80" />
            </Array>
          </mxGeometry>
        </mxCell>
        <mxCell id="alUQvkPKiy3RBT4dOB0o-118" style="edgeStyle=orthogonalEdgeStyle;rounded=0;orthogonalLoop=1;jettySize=auto;html=1;entryX=0;entryY=0.5;entryDx=0;entryDy=0;fillColor=#d5e8d4;strokeColor=#82b366;" edge="1" parent="alUQvkPKiy3RBT4dOB0o-2" source="alUQvkPKiy3RBT4dOB0o-15" target="alUQvkPKiy3RBT4dOB0o-14">
          <mxGeometry relative="1" as="geometry">
            <Array as="points">
              <mxPoint x="340" y="80" />
            </Array>
          </mxGeometry>
        </mxCell>
        <mxCell id="alUQvkPKiy3RBT4dOB0o-119" style="edgeStyle=orthogonalEdgeStyle;rounded=0;orthogonalLoop=1;jettySize=auto;html=1;entryX=0.5;entryY=1;entryDx=0;entryDy=0;fillColor=#f8cecc;strokeColor=#b85450;" edge="1" parent="alUQvkPKiy3RBT4dOB0o-2" source="alUQvkPKiy3RBT4dOB0o-111" target="alUQvkPKiy3RBT4dOB0o-110">
          <mxGeometry relative="1" as="geometry" />
        </mxCell>
        <mxCell id="alUQvkPKiy3RBT4dOB0o-37" style="edgeStyle=orthogonalEdgeStyle;rounded=0;orthogonalLoop=1;jettySize=auto;html=1;fillColor=#fff2cc;strokeColor=#d6b656;" edge="1" parent="1" source="alUQvkPKiy3RBT4dOB0o-28">
          <mxGeometry relative="1" as="geometry">
            <mxPoint x="250" y="340" as="targetPoint" />
            <Array as="points">
              <mxPoint x="180" y="390" />
              <mxPoint x="250" y="390" />
            </Array>
          </mxGeometry>
        </mxCell>
        <mxCell id="alUQvkPKiy3RBT4dOB0o-39" style="edgeStyle=orthogonalEdgeStyle;rounded=0;orthogonalLoop=1;jettySize=auto;html=1;fillColor=#ffe6cc;strokeColor=#d79b00;" edge="1" parent="1" source="alUQvkPKiy3RBT4dOB0o-27">
          <mxGeometry relative="1" as="geometry">
            <mxPoint x="390" y="220" as="targetPoint" />
          </mxGeometry>
        </mxCell>
        <mxCell id="alUQvkPKiy3RBT4dOB0o-46" style="edgeStyle=orthogonalEdgeStyle;rounded=0;orthogonalLoop=1;jettySize=auto;html=1;fillColor=#fff2cc;strokeColor=#d6b656;" edge="1" parent="1" source="alUQvkPKiy3RBT4dOB0o-30">
          <mxGeometry relative="1" as="geometry">
            <mxPoint x="530" y="340" as="targetPoint" />
            <Array as="points">
              <mxPoint x="460" y="390" />
              <mxPoint x="530" y="390" />
            </Array>
          </mxGeometry>
        </mxCell>
        <mxCell id="alUQvkPKiy3RBT4dOB0o-90" value="&lt;b&gt;Notes:&lt;/b&gt;&lt;br&gt;- Lanes denote commodity/resource type&lt;br&gt;- Quantities below resource indicate required input not default" style="text;html=1;align=center;verticalAlign=middle;resizable=0;points=[];autosize=1;strokeColor=none;fillColor=none;" vertex="1" parent="1">
          <mxGeometry y="630" width="340" height="50" as="geometry" />
        </mxCell>
        <mxCell id="alUQvkPKiy3RBT4dOB0o-91" value="&lt;b&gt;To-do:&lt;/b&gt;&lt;br&gt;- Join matching inputs&lt;br&gt;- Represent ice inputs" style="text;html=1;align=center;verticalAlign=middle;resizable=0;points=[];autosize=1;strokeColor=none;fillColor=none;" vertex="1" parent="1">
          <mxGeometry x="105" y="695" width="130" height="50" as="geometry" />
        </mxCell>
        <mxCell id="alUQvkPKiy3RBT4dOB0o-164" value="" style="shape=image;verticalLabelPosition=bottom;labelBackgroundColor=#ffffff;verticalAlign=top;aspect=fixed;imageAspect=0;image=data:image/png,iVBORw0KGgoAAAANSUhEUgAAAfIAAAGQCAYAAABVreKBAAAMa2lDQ1BJQ0MgUHJvZmlsZQAASImVVwdYU8kWnluSkJDQAhGQEnoTpFcpIbQIAlIFGyEJJJQYE4KKXVlUcO0iihUroujqCsiiIvayKPa+WFBR1sWCoqi8SQFd95Xvne+bO/89c+Y/5c7cewcA7V6uRJKH6gCQLy6QJkSGMsekpTNJHYACzAADWAInLk8mYcXHxwAoA/3f5f0NgCj6q84Krn+O/1fR4wtkPACQcRBn8mW8fIibAcDX8yTSAgCICr3VlAKJAs+BWF8KA4R4lQJnq/AuBc5U4SalTVICG+LLAGhQuVxpNgBa96CeWcjLhjxanyF2FfNFYgC0h0EcxBNy+RArYh+Wnz9JgSsgtof2EohhPMA38zvO7L/xZw7yc7nZg1iVl1I0wkQySR532v9Zmv8t+XnyAR+2sFGF0qgERf6whrdyJ0UrMBXiLnFmbJyi1hD3iviqugOAUoTyqGSVPWrCk7Fh/eAzB6grnxsWDbEJxBHivNgYtT4zSxTBgRiuFnSqqICTBLEhxAsFsvBEtc1m6aQEtS+0LkvKZqn1Z7lSpV+Frwfy3GSWmv+NUMBR82NaRcKkVIgpEFsXilJiIdaC2EWWmxitthlRJGTHDthI5QmK+K0hThCII0NV/FhhljQiQW1fmi8byBfbLBRxYtX4QIEwKUpVH+wkj6uMH+aCXRaIWckDPALZmJiBXPiCsHBV7thzgTg5Uc3TKykITVDNxSmSvHi1PW4pyItU6C0h9pQVJqrn4ikFcHGq+PEsSUF8kipOvCiHOzJeFQ++DMQANggDTCCHLRNMAjlA1NpV3wXvVCMRgAukIBsIgLNaMzAjVTkihtdEUAT+hEgAZIPzQpWjAlAI9V8GtaqrM8hSjhYqZ+SCpxDng2iQB+/lylniQW8p4AnUiP7hnQsbD8abB5ti/N/rB7TfNCyoiVFr5AMemdoDlsRwYhgxihhBdMCN8SA8AI+B1xDY3HFf3G8gj2/2hKeENsIjwnVCO+H2RNE86Q9RjgLtkD9CXYvM72uB20JOLzwUD4TskBln4MbAGfeEflh4MPTsBbVsddyKqjB/4P5bBt89DbUd2ZWMkoeQQ8j2P87UctTyGmRR1Pr7+qhizRysN3tw5Ef/7O+qz4d99I+W2ELsIHYGO46dw5qwesDEjmEN2EXsiAIPrq4nytU14C1BGU8u5BH9wx9X7VNRSZlrjWun62fVWIFgaoFi47EnSaZJRdnCAiYLfh0ETI6Y5zKM6e7q7gaA4lujen29ZSi/IQjj/DfdfB8AAov7+/ubvumitwNwMA1u/2vfdHYf4TvaCoCzG3lyaaFKhysuBPiW0IY7zQh+y6yAPczHHXiDABACwsFIEAeSQBqYAKsshOtcCqaAGWAuKAFlYBlYDdaBTWAr2AX2ggOgHjSB4+A0uAAug+vgLlw9HeAl6AbvQR+CICSEhtARI8QcsUGcEHfEFwlCwpEYJAFJQzKQbESMyJEZyHykDFmBrEO2INXIL8hh5DhyDmlDbiMPkU7kDfIJxVAqqo+aorbocNQXZaHRaBI6Hs1GJ6NFaDG6BK1Aq9A9aB16HL2AXkfb0ZdoDwYwTYyBWWDOmC/GxuKwdCwLk2KzsFKsHKvCarFG+JyvYu1YF/YRJ+J0nIk7wxUchSfjPHwyPgtfjK/Dd+F1+En8Kv4Q78a/EmgEE4ITwZ/AIYwhZBOmEEoI5YQdhEOEU3AvdRDeE4lEBtGO6AP3YhoxhziduJi4gbiP2ExsIz4m9pBIJCOSEymQFEfikgpIJaS1pD2kY6QrpA5Sr4amhrmGu0aERrqGWGOeRrnGbo2jGlc0nmn0kXXINmR/chyZT55GXkreRm4kXyJ3kPsouhQ7SiAliZJDmUupoNRSTlHuUd5qampaavppjtYUac7RrNDcr3lW86HmR6oe1ZHKpo6jyqlLqDupzdTb1Lc0Gs2WFkJLpxXQltCqaSdoD2i9WnQtFy2OFl9rtlalVp3WFa1X2mRtG22W9gTtIu1y7YPal7S7dMg6tjpsHa7OLJ1KncM6N3V6dOm6brpxuvm6i3V3657Tfa5H0rPVC9fj6xXrbdU7ofeYjtGt6Gw6jz6fvo1+it6hT9S30+fo5+iX6e/Vb9XvNtAz8DRIMZhqUGlwxKCdgTFsGRxGHmMp4wDjBuPTENMhrCGCIYuG1A65MuSD4VDDEEOBYanhPsPrhp+MmEbhRrlGy43qje4b48aOxqONpxhvND5l3DVUf2jAUN7Q0qEHht4xQU0cTRJMpptsNblo0mNqZhppKjFda3rCtMuMYRZilmO2yuyoWac53TzIXGS+yvyY+QumAZPFzGNWME8yuy1MLKIs5BZbLFot+iztLJMt51nus7xvRbHytcqyWmXVYtVtbW49ynqGdY31HRuyja+N0GaNzRmbD7Z2tqm2C2zrbZ/bGdpx7Irsauzu2dPsg+0n21fZX3MgOvg65DpscLjsiDp6OQodKx0vOaFO3k4ipw1ObcMIw/yGiYdVDbvpTHVmORc61zg/dGG4xLjMc6l3eTXcenj68OXDzwz/6urlmue6zfWum57bSLd5bo1ub9wd3Xnule7XPGgeER6zPRo8Xns6eQo8N3re8qJ7jfJa4NXi9cXbx1vqXevd6WPtk+Gz3uemr75vvO9i37N+BL9Qv9l+TX4f/b39C/wP+P8V4ByQG7A74PkIuxGCEdtGPA60DOQGbglsD2IGZQRtDmoPtgjmBlcFPwqxCuGH7Ah5xnJg5bD2sF6FuoZKQw+FfmD7s2eym8OwsMiw0rDWcL3w5PB14Q8iLCOyI2oiuiO9IqdHNkcRoqKjlkfd5JhyeJxqTvdIn5EzR56MpkYnRq+LfhTjGCONaRyFjho5auWoe7E2seLY+jgQx4lbGXc/3i5+cvxvo4mj40dXjn6a4JYwI+FMIj1xYuLuxPdJoUlLk+4m2yfLk1tStFPGpVSnfEgNS12R2j5m+JiZYy6kGaeJ0hrSSekp6TvSe8aGj109tmOc17iScTfG242fOv7cBOMJeROOTNSeyJ14MIOQkZqxO+MzN45bxe3J5GSuz+zmsXlreC/5IfxV/E5BoGCF4FlWYNaKrOfZgdkrszuFwcJyYZeILVonep0TlbMp50NuXO7O3P681Lx9+Rr5GfmHxXriXPHJSWaTpk5qkzhJSiTtk/0nr57cLY2W7pAhsvGyhgJ9+FN/UW4v/0n+sDCosLKwd0rKlINTdaeKp16c5jht0bRnRRFF26fj03nTW2ZYzJg74+FM1swts5BZmbNaZlvNLp7dMSdyzq65lLm5c3+f5zpvxbx381PnNxabFs8pfvxT5E81JVol0pKbCwIWbFqILxQtbF3ksWjtoq+l/NLzZa5l5WWfF/MWn//Z7eeKn/uXZC1pXeq9dOMy4jLxshvLg5fvWqG7omjF45WjVtatYq4qXfVu9cTV58o9yzetoayRr2mviKloWGu9dtnaz+uE665XhlbuW2+yftH6Dxv4G65sDNlYu8l0U9mmT5tFm29tidxSV2VbVb6VuLVw69NtKdvObPfdXr3DeEfZji87xTvbdyXsOlntU12922T30hq0Rl7TuWfcnst7w/Y21DrXbtnH2Fe2H+yX73/xS8YvNw5EH2g56Huw9lebX9cfoh8qrUPqptV11wvr2xvSGtoOjzzc0hjQeOg3l992Nlk0VR4xOLL0KOVo8dH+Y0XHepolzV3Hs48/bpnYcvfEmBPXTo4+2Xoq+tTZ0xGnT5xhnTl2NvBs0zn/c4fP+56vv+B9oe6i18VDv3v9fqjVu7Xuks+lhst+lxvbRrQdvRJ85fjVsKunr3GuXbgee73tRvKNWzfH3Wy/xb/1/Hbe7dd3Cu/03Z1zj3Cv9L7O/fIHJg+q/nD4Y1+7d/uRh2EPLz5KfHT3Me/xyyeyJ587ip/SnpY/M39W/dz9eVNnROflF2NfdLyUvOzrKvlT98/1r+xf/fpXyF8Xu8d0d7yWvu5/s/it0dud7zzftfTE9zx4n/++70Npr1Hvro++H898Sv30rG/KZ9Lnii8OXxq/Rn+915/f3y/hSrnKXwEMNjQrC4A3OwGgwX8HOjy3UcaqzoJKQVTnVyUC/wmrzotK8QagFnaK33h2MwD7YbOdozyqAMUvfFIIQD08BptaZFke7iouKjwJEXr7+9+aAkBqBOCLtL+/b0N//5dtMNjbADRPVp1BFUKEZ4bNgQp03ZA/B/wgqvPpdzn+2ANFBJ7gx/5fBLmPTm58rDgAAACKZVhJZk1NACoAAAAIAAQBGgAFAAAAAQAAAD4BGwAFAAAAAQAAAEYBKAADAAAAAQACAACHaQAEAAAAAQAAAE4AAAAAAAAAkAAAAAEAAACQAAAAAQADkoYABwAAABIAAAB4oAIABAAAAAEAAAHyoAMABAAAAAEAAAGQAAAAAEFTQ0lJAAAAU2NyZWVuc2hvdKFHB9YAAAAJcEhZcwAAFiUAABYlAUlSJPAAAAHWaVRYdFhNTDpjb20uYWRvYmUueG1wAAAAAAA8eDp4bXBtZXRhIHhtbG5zOng9ImFkb2JlOm5zOm1ldGEvIiB4OnhtcHRrPSJYTVAgQ29yZSA2LjAuMCI+CiAgIDxyZGY6UkRGIHhtbG5zOnJkZj0iaHR0cDovL3d3dy53My5vcmcvMTk5OS8wMi8yMi1yZGYtc3ludGF4LW5zIyI+CiAgICAgIDxyZGY6RGVzY3JpcHRpb24gcmRmOmFib3V0PSIiCiAgICAgICAgICAgIHhtbG5zOmV4aWY9Imh0dHA6Ly9ucy5hZG9iZS5jb20vZXhpZi8xLjAvIj4KICAgICAgICAgPGV4aWY6UGl4ZWxZRGltZW5zaW9uPjQwMDwvZXhpZjpQaXhlbFlEaW1lbnNpb24+CiAgICAgICAgIDxleGlmOlBpeGVsWERpbWVuc2lvbj40OTg8L2V4aWY6UGl4ZWxYRGltZW5zaW9uPgogICAgICAgICA8ZXhpZjpVc2VyQ29tbWVudD5TY3JlZW5zaG90PC9leGlmOlVzZXJDb21tZW50PgogICAgICA8L3JkZjpEZXNjcmlwdGlvbj4KICAgPC9yZGY6UkRGPgo8L3g6eG1wbWV0YT4KbaglVQAAABxpRE9UAAAAAgAAAAAAAADIAAAAKAAAAMgAAADIAABWxedCmDAAAEAASURBVHgB7J0HuBQ1F4YDdrE3VESxAvbee+8iFlBBEBRsIKKICFgApagoYKWIWFBRAbtiwd5/K1YQsffesME/b/AM2dyZ2dly9+7ee87z3LszmUkm82WTL6ckW2/8+PFzjYoioAgoAoqAIqAIVCQC9R57fKoSeUU2nVZaEaiKwJeff2FWXnWVqhc0RRFQBCoSgTR9Wom8IptWK60IRCOQptNH59RURUARKEcE0vRpJfJybDmtkyKQJwJpOn2eRWs2RUARqAEE0vRpJfIaaBh9pCJQXQik6fTV9WwtVxFQBIqPQJo+rURefNy1REWgxhBI0+lrrHL6YEVAEcgZgTR9Wok8Z1g1gyJQvgik6fTlW3utmSKgCPgIpOnTSuQ+anquCFQwAmk6fQW/nlZdEahzCKTp00rkde5roS9cmxFI0+lr8/vruykCtQ2BNH1aiby2tbq+T51GIE2nr9MA6csrAhWGQJo+rUReYY2q1VUEkhBI0+mT8us1RUARKC8E0vRpJfLyajOtjSJQEAJpOn1BD9DMioAiUFIE0vRpJfKSNok+TBGoXgTSdPrqrYGWrggoAsVEIE2fViIvJuJaliJQwwik6fQ1XEV9vCKgCOSAQJo+rUSeA6B6qyJQ7gik6fTl/g5aP0VAEZiPQJo+rUQ+Hy89UgQqHoE0nb7iX1JfQBGoQwik6dMFE/mcOXPMp598at6f/r75cOZM06DBEqbx6o3NWmuuZRqt1qgOwV2zr/rtt9+aP//801ZigQUWMCuvvLI9/uuvv8w333wTVm6ppZYySy65ZHiuB7ULgTSdPtsb+316mWWWNes1Xc+ss846Qf9ukC17rbju95slgnFt6WWWtu/2/Xffmz9m/xG+5yqrrGLq168fnudy8Ouvv5rp06eb6e+/b37++Wez1lprW6wbNWpk6tWrl0tRFX2vj7eOU/ObM02fzpvI//77bzNq5Chz7733mNl/zJ7/VOdou+22Mx1POD74cq7lpOphdSDQvdvp5rXXXguLnjh5kllmmWXsINH5hE5h+h577GF69+0Tnv/+++9m9uz57bfccsuF1/Sg8hBI0+nj3ipNn4bMz+rZ06yz7jpxxdSKdMg1rt/0Oae3efbZZ8P3vOGmG81qq60Wnqc5eOedd8wlQy42H374YeTtiy22mDm05aHmuOM6mAUWXCDynkpLTBprkvDmPZPyVhoOudY3TZ/Oi8g//vhjM6BffzNjxoysdWJW2av3OWbPPffMeq/ekD8CPpHfceedZrnll8tK5B2OO87M+nBW+ODHHp8aHutB5SGQptNHvVUufXrBBRc0nU/sbFoedlit1RqTiKUQIsfacestt5rrrhtj5vw7J6opMtKaNW9u+p7b16D1V7okjTVJePPeSXkrHZds9U/Tp3Mm8m++/sa0b9fO/PHHfNNStoostNBC5tLLhpoNN9ww2616PU8E4oicyVan408IS90jmFD17tM7PG/X9ljzySefhOdK5CEUFXmQptP7L5ZPn6aMtscea47rcJxfXK04TyKWQoj8qiuvNHfcfkdOGOEKu+HGG0PTfk6Zy+jmpLFGx6n4hkrTp3Mm8gsHXGgefeSRjKduv/32Zo+99jTNmzU3v/3+m3nwgQfM5EmTzb///hvet/rqq5vrbxgXnutBcRGII/K5c+da35s8bZFFFjGLLrqonJqkzhXepAcVg0CaTu+/TFKfbtasmfn2m2/Nm2++aW6+6aaMCfxCCy9kxo27way8yrx4DL/cSj6vDiL/6KOPTMcOHTI08SWWWMIc06aN2XCjDa0r7N133jVTpjxkXnrxpQz4DjzoINP9jO4ZaZV2kjTW6DgV35pp+nRORP7WW2+ZLqecmvHEQ1u2NKd2ObWKiW3qY4+Z/oH53ZVxN95gGjdu7CbZ46+//tqa6QmWmz37T9OkSRPrV1+jyRpVgkjw53KfSMOGK1sTMp3kjddfN19++aUNytkg0P5XWmklextfEjrmyy+9HJT/RzDwrGK22WYbs/zyy0sx9hPN9NdffrHH9esvYJo2a2p9M9PenGamTXvTBok1CyYrzZo3M1gZkF+C+//3v/+Z99591yy77LJmrbXXNltuuaW9Fvfvrz//Mh/M/MDM/GCm+fTTT8wKK6xg1gziCPA/EuSRJJ99+pmhHfCtMTliAADTOCL38Vp22eXswIuPzgS49Lugn/nqq6/CR1551ZX2mHZYdNFFwvRGgQ/Qr9sfv/9hZs2a7+OTssNMelByBNJ0erdSufTp9959z/TseZb5+aefwyJ23mVnc97555t3+T45gknYD9aaGfTbP/+Lx1g4mFCuHfQVV/g+oZlNDwJnv/vuu8APv67ZYIMNwn7s3vvrL78GlqSPw6TGQV+AFHERvPD88zb/AQcemDHeEAz6wgsvmC+/+MJ8//33BhfBkksuZZoF/XzDDTfK8EVXB5Gf1eOsYAyaT9DEo1x8ySVB318zfA8OUICGXjrUPHD//WE6wXTXjhoZYkb/n+1YRZsGEy434M7vm0sH8TKrrrpqWJ4cUM60YJL2XRDAhx8aDFdccUWz5VZb2k+5j0/3mYstvrgdpwnQY5L3ztu0/1yzdjCGMf65AbXZxpoVgudxvzuuy1iSLe/iQfDl77/9FlZzkUBJiYrJ+vijj81vv/0a3rfeek0z2ju8UIYHafp0TkR+Yf8B5tFHHw1flS8GgR7uFyi8GBx063qaeeONN8Kkk04+yRxx5JHh+W9BA1x79TVBwNy9YZp7ABn3OKuHJSxJ9zvYCZ1OsITo1ot7IdpBQwbbjnzWmT0CwpklRdhPNFPy4ucTcU1miwdf1EGDB5levXqZ336d/0Xh3m223dYMGDDATJw40Vx7zTUGv5crTZs2NQMuurDKRIF7Xgo68tBLLs0gT8lLnTp07GDrROS5K7gyBl54kXn66afdZHvcpm0b25lef+318Fo2H/nuu+4W3ht1wOTANbm3Puoo06nz/KA58kyaOMmMGD48zL7/AfubM3v0CM/1oPQIpOn0bq1y7dOTJ00yw4fNb3PKuv3OO+wEn0m0CBPC5uuvL6cGYmlxyCGGgDqEVRXjb70lvP7Iww+bYcOGVelr3LDRRhuZfv37Z5iWn3/uOXNOr3PC/D3P7mn7+ITbJgTz07k2/YL+/cxOO+1kz8ded52ZeOdES1ZhJudg6aWXtr7ozbfYwqb644wbJOqOE9ycJtjt008/Nce2aes80Zievc42++yzT0aanPzzzz+m9ZGt7IRD0g4MJibdzzzDnp7YubN5/7335ZK574H7DQFyIm+/9bY59ZRT5NTsu9++NkhREiDlwYMGZZQh1+STdz4zGH8ZlxD3mbQf9e8dtAETAFdQkPqed67ZeOONbXK2sQZrw0EHHxQZXJgtL3V8LFAapc2ZnE26a3LG6grG58NbHmZ+/PFHWx8mmLfcdmvkBNF9j3I5TtOncyLyEzoebz744IPw/U46+eSAmI8Iz/0DgENjFaGBIUjkp59+sg2HNp4kmO8GDhxo4joYDceXPkr4YjPDdJdfufcxARk+YoRZf4N5A47fQRdeeGHDsogoWWONNQxWgDiB7AcOGphxmSCXkddem5EWdcKMdvDFQ0KNhjqcevIpqYILpbxCiRx3iRuZy6TtpvE3S/H207cCXD58WNh5M27Uk5IhkKbTu5XJtU9DyIcHk183RuaSSy8xL7/8vyCIaz4xH33M0eb4E+bHZjz5xBPm/PPODx/dqnVrGzBHAtrnvffcE16LOiDYa8jFF4dLWn0iX3PNNatEgJ/f7wKz8847m8svu8zcfdfdUcVmpNVfoL51FbBstthE/vRTT5tz+/YNn8fE4bbbJxjGmDi5Ydw4c/3Y68PLWN8YrxCXVDnPhchnzZpllSy06Wyyz777mJ5nn21v85+ZND5inYQsuScbGRdC5OT97LPPzKuvvBK+Sq9zzjF77b1XeP56YKk9/bRu4flmm21mY7bChDI/SNOnUxM5s5r99t3X/P3XvBk1737VNVcHZqlmecEwaOAgM+Whh8K8LJXCTLf44g3M888/lxFJTSe+7vqxdmbodzAKgMx32WWXYG3nbGtWc33zXOfLBLHWr1/PPPvMs6FWwLWDDznYdDv9dA6NT+SkQdjrB+a9NwPLArNqX3ADYGrHt0UHceXOSROtuZ00TH4MmqKRkLb5FpsHpsMNzefBF/HJJ5/MuIY/jC8pEqUF7RQMUGsFJrn33nvPPP/c8/Y+9182Ir99wjzN5Zbxt9hJleQ98aQT7eHaa69jLhs61Hz++edyyZr21g3MnQgTscMObRlaI6KIPsyoByVDIE2nl8rk26dP69LVWoCknC5du1qtuZND3PSbseOul1vMwIsuMg9PeTg8v2bktWa99dYzL77wojk7WM4mgvtm9z12Dyax9c0Tjz+eoZFuv8MOZsCFA+ytPpFLfvez/4D+getpo4zvKZN3Iu4323xza5q+YsQV5v1gDbcI78KyL3+cKVQjv/mmm82Y0aPlMda1NzCw+CXJKwE5ndl9ngbOfWAz+e67bBafVHMhct55YrCqRWSTTTexllKscIyPWBlFmHCwlBUt1n8m92DGXnudte0Y5CptXOsTTFxoyzRjzVJLLxWpkafJixtmUKDsiaCEYBEVufKKK8ydd8x/3yRLiOQpp880fTo1kTOgtzn6mIz3E7LISExx4kcoMnsbceUVoQ8HHzImbXeW1SkwJbU+qnWVDsbjhlxyceiXnnDbbeaawFzvCo1K4yIPPvCgGTJ4cHh54002MZcPu9ye+0TOF/ySSy81mLlxAxzXrr1h4xWR9QPT4WVBXsz41PmEYM38Jx/PjwAfGmgCm262qb393D59M8zirVq3CgaUeaTJDS+9yIB2dmgiarBEAzNp8mT77FaBO4KAIxGX5Em78YYbDaZDV6RtkgYk7k8KQLkhCGS6fuzYsNijjzkm0LKOt+cP3P+AuXjIkPBa++Pam2OD1QwqNYtAmk4vNfzyiy/N0YHLxBXM5H7siHudY98cf3BgMu92ercq36Ubg+A4tFsm1i1bHBpa51ZtFFh3br7ZFsuYIpNFvvOjRo0Og+fIB3l8MGO+FZDJAZOEKCIn/ylBDM/Gm2xsGgQKwRJLLhFMBp4wAwKzvAjEAsGIYNK/KHBZiTB5pn8l9Rt/nEhjWvcnMvIceW7UZ5Q5XvaH8Ek1FyL3+/z1gea/+hqrh1VoE/Tzzz+bP4G/Y2KwlDXw5/vPZJ8QXB6scycWp98FF2QoFe3atzPt2rcPy/Wf666QScKbApLyYh3CdC5WIsZjzOti/T2qVevQlbnoYouaOwOXqOuGCCtYpgdp+nRBRJ6m00dhc+899wbmtEvDS36Dc8EPwkEDvSAwlfkNjkltzNj5JEZQA8vjRFZYcQUz4fbb5dQOJoccdHB4ziyUIDzE76BimpObCQx7fOpUOQ38wWea/Q84IDwfMXxE4DeeGJ7LjJSEIw473AbgcGy/TIG/brHF5/u0SMeX//LLL3NoZUxAzrgGIHIRNp5g4HAF0/uRhx+REZ1eDCL3B3p2m7rx5pvso88JJlquJeDmW8bXirWuLq6VeJym08t74dM+unXuRA4xPvboY1JMYNWaR+RjrxsbTCrn9SUuYt05slUr89qrr5nu/1m9SJcJIcve3O82SyOZELrCxJtoeZG2x7YNlrx1iCTyK6++yjQPguxc+feffzPcY7jqxB2HQnHNVVdnxPEIwfrjTKEaeRUid/zdbn3dY2JUIDBXikHkkO7cOXPnFVvPhKT2ww8/mKeefMoMu/zyUKHgJhlLfCJnSTFmahE/wBm/9+ndu8vlRDJOwpsCkoic6yhnfFdEzgmW2LJ3yfuBxfLEzvMVJtdVIPeW+2eaPp2ayDHD7b/vfhmdwg9o8QHB1ILZQwRSIkLbJ7zLLr/MbLLpPM1V7uVzn732Ds3NbPs6Lhgk/AbfZdddbNSs5ENjhtRECJgbccU8vxJpBEXssdvuctkGw8UROeZ8TOcilwYRpvfde5+c2ojTLbbcIjz3BzIhcnBwJw9o+pcFncUX3/zGRhBEb7qD4AEHHmDOOPNMP6vpedZZGUtWpPP5eLkDEoVk6yC+H3zk6FGm0aqNMgKXXKtGlYppQkkRSNPppUL59Gnydjm1i3lr2jQpxog5mpgRrFYiBKkNGzHc+KZNvkOs0CCCvFdghcpF5Pvva+RYx64IAuzihAH9yYCk+MSn+tXXX2UsA5N81UXk428eb0aPGiWPMVttvZUZ7Fi0wgvOAZN6JvcimJ8n31W4aZ3y0F6ZjBFxPisIfMMqwnaxUSJjiU/kt064LSNgjMBmApxF/AC7pLGm0HHK94PvsOMOpn8QkDw6sPCM/8/6Q71cK6nUs9w/0/Tp1ETOy7KxCLNYESKs27RtK6dVPvv362emPjZfg5WG9Wf0cb52zHESaYgpBPNRtgZnH2SCcUQ2DSYIQ4OJgitu8EWSRu6bzPygHMzqmwSmeRE/OEWI3J9Zs/Qtyj921+S77GxYyiPKv2EQHXr+uedJUqDhHBloOieF53LQt08f88zTz8hpOIvOhldS56Kwhx58MIhune+KIEKepXL9A+uESI9gErHf/vvJqX7WIAJpOr1bvVz7NAFSrY44MtzXn7JczaxjsKUoEdEI/mjMmCcFLiSJaHf7m2+Zs5my/BP/p0/kMrb42ZmssNrDX9Xi3yfn1UXkzzzzjOnbu488xuAGwFLom3ivufrqwFW3sOl4fMcqLjOiwAkoRXxS9U3r04KJVtdgwiXi4oO185yze4WuDrkn7jOOyO8Llse5VsVskfJJY02h4xQK2jFHHR1+z7C8TA7GU757xCchDVduaMYHAZn+ssi49y6X9DR9Oici981D+NKITMRU5QuaOMsn3MAzCTIYee3IjAhXIrS32mqrjCIwie2zz97hrJmAilFBsEi2Bi9HIseUhTVDJE57IEKVyYAIwTorBmvhT+zUWZLMbrvvFiyTOTc8l4NuQVQm6+hFpPNlwyupc1EWUcqHHdYy3E8fywiBcOJiYGkKQX3ij5Ln62fNIJCm07s1y6VPk8/XLElzgzoxg48ZPYZkK4cfcUSwk9l815a7G5wfzIWZlu93kiy//Apmu+23q2Jaj5vgsosau6mJ4Nbae++9zfrrb2B/3InYF1frrS4ij4ox6npaV9Pi0EOlarbvS5Q6UddYLNw1+4e0aGFO6zZP4/WJXEzuUtgzwTLVvkFcjogQOSt8UHTcclnzT3R/kzWbmLWDH225KIgpilrK6j/TnzzUJJHznuOuvz74mz9+ErPjjqfilhFMKuUzTZ/OichnTJ9hOnfqlOE/2XHHHW3wyMKLLJyBCzNL1nS6clsQKb3iSisG0epTMqIMWxzawnQ9bb5JhjwsfcJnLbJnsHPcOb17VySR8w7MFr8INqJAWOYyYcLtdiMbm/DfP36kAeIVwR9NNP9BBxwoSZYwb7/jjoyZMFoSwR7uMrx8iXzKIw9XmZj5KwzCygQH0i5umh7XHAJpOr1bu1z6NH2y3/kXZLjX9g7WQZ8drCcWwWzd9pg2clrlk3gW4loQNmXheysi2rac84lGzUZOc+bOsckEurGKxdfI44icdc7PBWvORXzT6tQg5sW1LlUXkfP88/qea5566impitXGCRbDPYdGybrveRurhLeEByhLuPrkx1lO79Ytg2x9q6ZPakLkROi7igEWSywqrpba/th2oRZLBWQsKTaRu2NNrgqHm1dAYnxlnI0TCb6Mu16u6Wn6dE5EzotGrclkSRJLx5o1m7dFK0EPRIu64i4dIYiqXbBPsyzFYnnYRQMvCteKs+6bZRfuhiRs+LBPsPwtW4OXo0YODr5ZnohPgulkh7jbbr0tY9kHgxVEjnnS17Z33W030zuY1BAtisWDKOLHg6U6rkjny4aXr5GzS9dOO+9kO7Z0bj9YyX0OO1O5cQLuNT0uPQJpOr1fq6Q+zY5h3wVxJ2+88aZ1s0CsIlhh2AOcH+dxxR/w5RrxJpCRKyzJdPem4JfVdt99d4NiwMSUFSjuUqlBQVDT1ttsnZrI/fJdvy59p1dgYnZ3W6tOImfcIxDX3ZsCgt53v/3s71A0bLhSsNb83EiTt7vuHvx89yTjSddAW2/YsKFdBnvG6d0NwWsiQuT+enZJl/vY5a1rsLzQFRlL/HYtVCN3xxpctnG/Nkdd0oxT3OePlaQhfqzUvNTK+J+mT+dM5KwfPr5Dx4wgtmxwYIIfPWZMxs5Mvj8ZwiIAhg6MloA5WoSNEIYFO4hBLNmIqVyJHNyYvLgmLbTtdddb13zx+RdV1qi7S+r+F2y20cMLcGM5CO4Gtnl1AwoFM+l82fDyd98jP8vtMOOx9S6CtsAypa++/Mqeyz+2csS1QtuplAcCaTq9X9N8+jRlSJCbX17UElDuaR/80t6x7TKjsKOIA/N3s6bN7Ppud9cwFAa2KUXSauT+UjnWrkPWvwe/CYGm7pqQKReTNhuKJPUbLIXuZkl+LA3lxEmUayLuXjedST2rRkRYX311EHHvCv2QezDjuy5N7hHC9pe0YR1sFawsaNx4dTMz2Db6/vvur7JTGxtBsU9EoUSeNNYQTZ5E5El5ZZziPf1lsaQh3c84I2j3+ZbNeamV8T9Nn86ZyHl1AtAuHjwkw2QVBwmDPdHXbMzgCtp4n0Cr9H8cwL2HYzRTAsPYVxxJ6mBcL1cip27PPfucuXDAgCodhWuu+LticW14sH0lP0QTJ+xV7G7IkJbI/Uh7KV80EzmPuk+WEck9+lnzCKTp9FG1zKVPszEJWyfvELjVooTdGomP8YUfTZJ+7F5jvwJMwUwY44SJK2ZxWe+clsiJ/O4Z7HGeVLb7zC2DWJ0hQcxO0jhTCJHzLCyWQ4PNlvytn916+Mesvcf6xXiIsNc8S/dk7bR/v7/TnRA5OLDLmbt1tp/XP78iiDFg98tCiTxqDOFZjDVxW7RKXZLyuj8mw8QPd42rCGLxZS08q6YqUdL06byIXMC45+67zT1332NNOa5/luv8whaBHAQY+JGZkp9P1v6xmYm/jWqDYDN81mjzM4nur3V9OPND+wtCUobMoOUc7eLQQ1rIqd0oBu3WFTdq3V2Hfl4QHf5UsMOaiMxE5Zx9xScF+4uLsIkNP+og4lsZ/HXo3MfaWcohkEVcC6RjbcAi0aVrlyqTHq4j7PDGjN7dlEb2jP8s2MDBXcMuRJ4NL4IKrwqW7bDrlrv8xCfyd4MfhTn5xJPmVeS//3EDc8ZNelJSBNJ0+qQKJfVplo5utPFGhq2ZOU6SLkHEtLtEjR9IGTVmdGwWIqmHXz7MropxSRfrEAFwaPNohSL8ZgEELRI1+ZVrrLwYNXJUxi5xXGu+fnPTNVguhb9ZBn7cBffcd6/dWbJjsF5dxB1nso0Tkifpkx8quvqqq4IfLJlWpV7kI6iUX5OcMmVKWAxKEfvTy+8w8CM0+PfdraLRyrcNzOw9gt88aBmMv4Klu087sQns2uiucuEhEB6rUnCfSNAd6bIfANtEv/322yTZ8eqBAFc3Nspfs+0+kzxJY82hQV3j8M6W1yVy7sVdwg/niPibAEl6pXym6dMFEbkAAYmz5ATSWGqpJc0agS+MTfXFxyr3JX0SsDVr1izrFyOgQ365LClPJV/D9GXXswabcrANIpjJjxNkey80npnBnvf88hsainTsbPmSrtN5IXKZXFAndzWCv1SIQfDKYCBSKS8E0nT6NDV2+/Syyy5jf4mMHRirW/iFslkfzjLffvet/fUtyLsYmhR+aZYh0XewKDRerXGGq6+63yupfKyI02dMNz98/4NZfoXlTcOVGoaWBwKD2UERQu7dt4/ZLYiP8QVzOWTOJASXhLskzL/XPUd54tcUZ/85206SwNrt8+69xTzONtYkPStbXiZkxEUwtooMDn48a6utt5bTivtM06eLQuQVh4xWOBUCtweR9c8FkcpzgkHEXdpG5kr2OaV6+Qq9KU2nr9BXq7PVZvvmXwJTOpqlSlUEmPzhLkD5wCWCxUHEt2JIeiV9punTSuSV1KIlrmvUEkKqQOfA7SAR9yWulj4uAYE0nT4hu15SBCoOAeIEDthv/8h6nxa4TQ5pcUjktUpJTNOnlcgrpTVroJ5RRE6kPb/zTvSvSvkhkKbTl1+ttUaKQP4IxBE52/my13ulr6pJ06eVyPP//tT6nGzz+PprrwWBQH+aBg0WDyJmVzWsV3UDXGo9CBX2gmk6fYW9klZXEUhEgCC6icFWwOzSRywBKxz4BTwCmWuDpOnTSuS1oaX1HRSB/xBI0+kVLEVAEagcBNL0aSXyymlPrakikBWBNJ0+ayF6gyKgCJQNAmn6tBJ52TSXVkQRKByBNJ2+8KdoCYqAIlAqBNL0aSXyUrWGPkcRKAECaTp9Caqhj1AEFIEiIZCmTyuRFwlsLUYRKAcE0nT6cqin1kERUATSIZCmTyuRp8NS71IEKgKBNJ2+Il5EK6kIKAIWgTR9WolcvyyKQC1CIE2nr0Wvq6+iCNR6BNL0aSXyWv810BesSwik6fR1CQ99V0Wg0hFI06eVyCu9lbX+ioCDQJpO79yuh4qAIlDmCKTp00rkZd6IWj1FIBcE0nT6XMrTexUBRaBmEUjTp+vtuuuuc2u2mvp0RUARUAQUAUVAEcgXgXozZsxQIs8XPc2nCJQZAscff7yZOnVqmdVKq6MIKAL5InDLLbeYo446KjG7EnkiPHpREagsBJTIK6u9tLaKQDYElMizIaTXFYFahoASeS1rUH2dOo+AEnmd/wooAHUNASXyutbi+r61HQEl8trewvp+ioCHgBK5B4ieKgIVjoASeYU3oFZfEcgVASXyXBHT+xWB8kZAiby820drpwgUHQEl8qJDqgUqAjWKgBJ5jcKvD1cESo+AEnnpMdcnKgLViYASeXWiq2UrAmWIgBJ5GTaKVkkRKAABJfICwNOsikAlIqBEXomtpnVWBOIRUCKPx0avKAK1EgEl8lrZrPpSdRgBJfI63Pj66nUTASXyutnu+ta1FwEl8trbtvpmikAkAkrkkbBooiJQsQgokVds02nFFYH8EFAizw83zaUIlCsCSuTl2jJaL0WgmhBQIq8mYLVYRaCGECg6kf/yyy/m+++/D19n4YUXNqusskp47h7Mnj3bfPXVV2HSoosuaho2bBie18UDHz/BYLnlljNLLrmknFb5BEfw9GW11VYzCyywgJ9cNufffPON+f3338P6NG7c2NSvXz8814PiI6BEXnxMtcTqQ+Dff/819erVy2lcmDt3rs2Ta60qJZ//XkUn8htvvNFccMEF4XM23HBDM3ny5PDcPXj66adN+/btwySI6tVXXw3P6+KBj59gcMQRR5iBAwfKacYnX/TtttsuYwIlNzz33HNmxRVXlNO8P3/99deMicIKK6yQd1luxs6dO5tHH300THrkkUdMkyZNwnM9KD4CSuTFx1RLrB4EUFBQRpjc//TTTwZlL04+++wzc9FFF5nHH3/czJgxwyy00EJm/fXXNzvvvLPp06ePWWaZZSKz3nnnnea6664zb731lvn000/t+LPBBhuYrl27mj322CMyD4mlzhdbkeBCWRH5EkssYV577bWk+tb6a3FEvtRSS5kXXnjBfjl9EEg/5phj/GR7Xiwi32+//cz06dPDZ9BRiiFK5MVAMbcylMhzw0vvrjkEIOALL7zQVgBlokGDBpGVefLJJ80+++yToWy4N6600kpmypQpZpNNNnGTrSI5bty4jDT3pGfPnmbQoEFukj1GAS1lvioV8BKUyD1Aavo0jsip1+jRo82uu+5apYr9+vUzN9xwQ5V0EopF5HvttZf58MMPw2cokYdQVNyBEnnFNVmdqzAut6FDh2aQaByR//DDD6Zp06aGPGjhaNIHH3yw+eijj6zWfPfddxtM5ptvvrl56aWXQhM9RCwW4UaNGpm+ffuaZs2aWWUSqzLlIg899JDZe++9wzYodb7wwQkHSuQJ4NTEpSQib9GihbnkkksyqsUXdKeddjJffvllRrqcKJELEvopCCiRCxL6WW4IHHjggQYT+ZtvvmlwGboSR+T33nuvOeigg+ytjI9nnHGGm80S+4gRI2za22+/bZo3b26P11lnHfPBBx9YkzvPw4Qvgpl9s802M3///bcdX9H4RUqdT56b9FkxRM7sCnDfeecdCzwg48dYZJFFYt+P4K8nnnjCfPLJJ+bbb781Cy64oFl66aXNxhtvbLbYYgt7TmbI8PXXX88oBxMMARauvPfee+aPP/6wSXPmzAlndiQstthidlbo3s8xXxQC2ESIGaAecZJE5LgeMKO770y9DzvssLjiYjXytHhSPvgwy/3888/D59xxxx32eOWVVzb8iaTFXO5PY1rH3UI9vvvuO/PXX39Znz+daYcddkjEUp6hn5kIKJFn4qFn5YMAPvA///wzskJxRD5kyBCDCRyZNWuWWWONNTLyo1Hvu+++Nm3SpEkGhQgewX+O9OrVy/rW7YnzT8znBAvjq19++eVLns+pTuJh2RM5BAzQU6dOrfIiRMQPGDDAtGzZMuMaxHPZZZdZczONHyVEgV9++eVm++23t5cxWRPoIAJRbbrppnJqfvvtN7PVVltZIiER8qJxeRaCSefFF1/MiCyH7LfddtswCI2JAROLVVdd1eaJ+pdE5Nx/1VVXZZh5+BKPHDkyqiib5mvkueIJYSZJ69atbRvkgznlJhH5+++/b0466SRrIouqAwF3/fv3N5j9VdIjoESeHiu9s7QI3H///YZxU+See+4Jx7c4Isd0fsghh9gsjMGM064wph577LE2CcVqrbXWMm4aYzIBcb7ceuut5qijjrLJBOES+FbqfH6d4s6rnciZHeF7iBLMGcOGDQsv+cFuDOQEcYmvIrzROzjllFPM6aefHqaee+65Zvz48eF53AEzLWZrTYIoaZ8QTzzxRHPmmWeGWR988EFz6qmnhucnnHCCmTZtmtV4JRGzDrM9Eb5URx99tJxaUr/pppvC86gDn8hZuvfFF1+Etx5wwAEZmPHlQrtGwA/LAL4iEZfI88EzLZHngzl1jCNy3oF3dZcyyju5n1g3iDiVCZl7TY+jEVAij8ZFU8sPAWJ/2rVrZysWR+QsX2VSj7V0l112MZC/LNUlQJdxhE8suIzZCAqg8BJjzLLLLmvT3X9YgLGgImPGjDEdOnQoeT63PknH1U7kSQ/3r7lEjoZ35JFHZixHQ7vFJM4SNQhKtGHKueuuu2xDQfrbbLNNOKtj2QJmFwZ6GhwNThqTfBAQszV8JwRIiEBgkLcIpO4uo+OYL0ePHj3kFjtju/baa8NzvizXX399eM5kwbcehBf/O/CJnIkM5iBZaw1RM0HgE1M/X1KRQw891AZzuJYFIfJ88eQLTF60fpdUzz77bPtY/E2YqPLBnALiiBx83YnU/vvvbydSuCloa3eihtnsiiuuEBj0MwsCSuRZANLLZYNAGiKnspB3mzZtzM8//2xJfffdd7dmdsZKZPXVVzdo7hK13r17d2u1RRHADx4lKBNEuyOM3Yz1pc4XVa+otLIlcsjLJUn8FSxFEEGTRhMXEU2VwIdu3bpJsiF4AhO6CCTgBkOIaZjrfmS2rGkm6GLrrbe26xi5DysDa58hV9ZvY3ZHMPXzxWFCgmCuEb/y4osvbp5//nnDZ5L4RM6gyxeKeosMHz7cQGxYMySIg2topkxMoog8XzzlmT42btR6IZjHETlRo2AhQpuKReSff/6xk6+vv/7aXgZvd5IlefQzGgEl8mhcNLX8EEhL5IzFEDnjXJQcd9xx5uKLL7Z+bq7DHbgpGTvcGCY3L+ks+0VQynr37l3yfG59ko7Llsjxi99+++1h3WkgAZVE/Cho0BJ8huaNKQQ/tBssAbniv2bWRYADm6qwBEHEJXII39Xs0DoZ9CBgviQi+G1lMoC2z8YAIiyZoF5o/a6ZHU2cWV02iSJyJgsdO3YMs7Je8sorr7Rkjrkcwef/7LPPmj333DOSyPPFE+yQJCKHWPPFPI7IsWzQ8VzB97XbbrtZqwwmLzfoz71Pj5MRUCJPxkevlg8CaYj8448/tiZ1At0QNsBirEABwyKJlo6wRI3oc7Ts0047zaAQJWnkbEAjm8iwxBdTfKnz2Yqn+FftRI72ykwmSohEhpBEXNM6xPfGG2/IpVSfzzzzTLjFK0SK1o4fHh8ymrG/nIFCXSJHy5ToRq5tueWWhoAH30SOGUeWMPh+cAjv6quvNpdeeqn9pBwE3ziugWwSReSYmCFziRWAwCZMmBAGeFAmvni+bLt6QXtiWi8UzyQil3fKB/M4IqdzUucff/xRis/4BAMwwW+l/vEMaLKeKJFnhUhvKBME0hA5Sops2kJsE7FKsnEMwb0oQZjVETGRY+HDokmcFIpIlGDxky3DKR+lrdT5ouoVlVbtRJ7LFq0ukTM4i+k0quJRaZifIVi0Zcg2jbhEzv2YrEXLRctHG4dQxFy95pprmocffjgsGv8xWqJcxwKAxk8eIiQRNht4PNg20F/OFhbiHEQROZYBZoM0lgizS3zkIviMMf/HEXm+eBIggiQROdaRfDGPI3KeSQwCEyLcGG48BNdc6dKli50pu2l6HI+AEnk8NnqlvBBIQ+QsJ0ZhQwtnvGbcdgXXJ+MYCh3BwbhM3R3jUBZYluzLu+++GypsWGoxx5c6n1+nuPOyJXII9uWXXw7rff7552ddM0yAw3333Rdu6UdmfNKYuFl3zrID/B7420V8IsdvgnlcBI0P37MIflrXB086Jhr+RCAW13ftR9XLfVGfcUTO5ECWQvj5WAr31FNP2YlCHJHni6cEeyQR+dixY/PGPInI5T0xcWFZwPrBJwTvC24Fqat/Tc8zEVAiz8RDz8oXgWxEzhJg2ccCzZy91qOEVUbsjIklDw5gzGLsQbDkRln1cJkefvjh9h40ejadIei3lPnsw1P8K1si9zVQtG3RDuW92DJUll5hImGHs06dOpnHHntMbqli0obo8XOI+EQusza57n+yznG99dbLSGbDGbTyOJGgubjrbnockaOREjznLkWTfEw2zjnnHHsaR+T54inP8ImceAPxnxeCeRyR88VkAxgEn1erVq2kKjYWggkVuItcc801Nj5AzvUzHgEl8nhs9Ep5IZCNyAlyI3YKtynB0XFxSLgeGVPY1AVzO75ylqohKG7u8mVB4KyzzgrjdFAeWMlU6nxSl2yfZUvkbHB/8sknh/XHbMLm+WjVCMDSOOI3ZlkBMyii1DGJiAC8bMBCYzOIob2K+EROOhq8u0RN7l133XXNAw88IKcZn9RFljq4F9jfF392WokjcvLjp2FW6QuBgBtttJFNjiPyfPGUZ/lEjsWBoDvcBcxU88U8jshZO8pMGWEWjXldZt6ksdMckyoRZsyyU5Ok6Wc0Akrk0bhoavkhkI3IqTEKHsuH2Q+EXSB9MznxNoyPBL2xZzqxU/jFURAwq2PJw53q5kNJYN91JgqM++JuLXW+tC1StkTOC2AC56dOXUEbhjxc/zDXRSNjZuX6x/HRQ9ZsJsDucGxx6gqk7e9fDllK8IR7r7sEyk3nmJ3gZG21e41AOZ6fVpKInKh82cFIypOlcHIeR+RczwdPKRezvhvtTzoRn6xzZ315vpjHEfmoUaPM4MGD5fH2N+15FsEn+MHclQLEVrzyyitVfGNhZj3IQECJPAMOPSljBNIQOQqeLE0moBg3J4HKxO6gtLHKSBQNYonERUlcj7hRCXJGA2fbZyyolIm7DvH3by91vjTNU9ZEzkyKiEP3V7eiXoo1ghIZD/FznhQc5ZaBOR5/iStEuEdt2YdWKxYB936OmSgQRS3L4UhDk4R0ZJch0rJJEpGT19eMsVqwSYFIEpHng6eU6y/Nk3QmKXSCfDGPI3JmwrS9P3mQ58onkzo6o/xogqTrZzwCSuTx2OiV8kIgDZFD2GjaWO1E2DALDuC3H0QYT1yLJmMM23C7MTcEylGeCBMDOAXXrUip88lzkz6LTuQs15LZEQ8myMxdD+5WhsCltm3bhklu1Loksj6ZgRrztL9wH22UIAZf4504caL1bbhblVIejXbeeedZk7wQLs9kpzg/opxd5dDyRDCzsPFJkjBAEp0u4m9GI+lJnz5+/laxmLTdbW19n71P5BChu/1gPnhSX0xKBJKw8YqsyyQd7LE65Is5gYCYukSIb2AXJoRoU4IP0b7xa/mCO4WJgPsTg/49el4VASXyqphoSnkiAEHhtkTitmjlGj+mRCAaY5QfR4TyxY6eaOL+OE8gLZo4EwaX9AmSZmxiSS8/5OJLqfP5z/fPi07k/gOKeY6mzOyJJV74vRnw/YaR50FYM2fOtOvHWdTPsjE2TakuYWIAcUvwHc8h2j1Ks6+uOuRabi54StnMViFyOg7CJEGC3qoLcyYRWBOIUOX5dDLaX9Z4St30Mx0CSuTpcNK7KhMBli3PCjaHgSfgiDTjPuMKfIFvHK5ASYzjFheVUudzn+0eVxSRuxUvh2NmcMwWITOCLVwLAD92gnbummTKoc5aB0VAiVy/A4pA7UJAibyA9sRXwmYEUcJe4QRnqSgC5YaAEnm5tYjWRxEoDAEl8gLwiyNy1jzjk/F3GCrgUZpVESgaAkrkRYNSC1IEygIBJfICmgHfLUESBOERISmb9fsbxhTwCM2qCBQdASXyokOqBSoCNYqAEnmNwq8PVwRKj4ASeekx1ycqAtWJgBJ5daKrZSsCZYiAEnkZNopWSREoAAEl8gLA06yKQCUioEReia2mdVYE4hFQIo/HRq8oArUSASXyWtms+lJ1GAEl8jrc+PrqdRMBJfK62e761rUXASXy2tu2+maKQCQCSuSRsGiiIlCxCCiRV2zTacUVgfwQUCLPDzfNpQiUKwJK5OXaMlovRaCaEFAiryZgtVhFoIYQUCKvIeD1sYpATSGgRF5TyOtzFYHqQUCJvHpw1VIVgbJFQIm8bJtGK6YI5IWAEnlesGkmRaByEVAir9y205orAlEIpCLy8ePHz43KrGmKgCJQeQiMHDnSdOrUqfIqrjVWBBSBvBGoN2PGDCXyvOHTjIpAeSGgGnl5tYfWRhEoFIFUGrkSeaEwa35FoHwQUCIvn7bQmigCxUBAibwYKGoZikAFIaBEXkGNpVVVBFIgoESeAiS9RRGoTQgokdem1tR3UQSMUSLXb4EiUMcQUCKvYw2ur1vrEVAir/VNrC+oCGQioESeiYeeKQKVjoASeaW3oNZfEcgRASXyHAHT2xWBMkdAibzMG0irpwgUGwEl8mIjquUpAjWLgBJ5zeKvT1cESo6AEnnJIdcHKgLVioASebXCq4UrAuWHgBJ5+bWJ1kgRKAQBJfJC0NO8ikAFIqBEXoGNplVWBBIQUCJPAEcvKQK1EQEl8trYqvpOdRkBJfK63Pr67nUSASXyOtns+tK1GAEl8lrcuPpqikAUAkrkUahomiJQuQgokVdu22nNFYG8EFAizws2zaQIlC0CRSfyX375xXz//ffhCy+00EJm1VVXDc/9g48++ihMWnTRRU3Dhg3D83wP/vjjD/P111+H2Zdaaimz7LLLhufZDr755hvz+++/h7c1btzY1K9fPzwv9sHnn39u/v7774xiF1hgAbPaaqtlpLknf/75p/nyyy/dJHu8xBJLmOWXX75KejkllBrfcnr3cqiLEnk5tILWIS0C//77r6lXr15OY/DcuXNtnrTPkPsqJZ/UVz6LTuQ33nijueCCC6R8AyFNnjzZNG/ePEyTA8jLTV9yySXNq6++Kpfz/pw6dao54YQTwvwMXGeffXZ4nu2gc+fO5tFHHw1ve+SRR0yTJk3C82IfbL311hmTHyn/ySefjJ0EjRs3zvTv319uDT9bt25tBgwYEJ7nezBnzpyMOi2++OKGv2JIqfEtRp1rUxlK5LWpNWv3u3z11VdWoUGR+umnnwzKXpx89tln5qKLLjKPP/64CX5626BErr/++mbnnXc2ffr0Mcsss0xk1jvvvNNcd9115q233jKffvqpHes32GAD07VrV7PHHntE5iGx1PliKxJcqHYi5+GbbLKJuf3226vMqHwiR5t87bXXkuqb6lqlEflWW21lfvjhhyrvxuSDQTdKjjnmGPPCCy9UuVQsIn/wwQfNqaeeGpZ/2mmnmS5duoTnhRwokReCXuF5lcgLx1BLKA0CEPCFF15oH/brr7+aBg0aRD4YpWefffYxs2fPjry+0kormSlTplgucm9o3769QSmKk549e5pBgwZVuVzqfFUq4CWUhMh5Jlo65OOKEvk8NOKIfKONNjKTJk1yIbPH3333ndluu+0MWrMvxSLye++913Tr1i0sXok8hKLiD5TIK74Ja/0L4H4bOnRoBonGETlKUNOmTQ150MLRpA8++GCD2xat+e677zaYzDfffHPz0ksvhQolBA4hI40aNTJ9+/Y1zZo1s8okfCXK1UMPPWT23ntvex//Sp0vfHDCQcmIHG374YcfNiuuuGJYHSXyeVDEETlXH3vsMbP66quHmHFw2223md69e2ekyYkSuSChn3EIKJHHIaPpNY3AgQceaDCRv/nmmwbfuCtxRI7ScdBBB9lbL7nkEnPGGWe42Syxjxgxwqa9/fbboTt3nXXWMR988IE1ufM8NyYJM/tmm21mY5d22mkng8YvUup88tykz5IROZU44IADzLBhw8L65ELkBIS988475r333rPmk3XXXdfOwgDVD0SLM63TiNOmTTMzZ840a665poFA11prrbA+cpDW9MuMjwanXvhfaHh8K4sssogUleozicj5Up500kkZ5XTo0CHji+VeTCLyNPUlgI6/Z555xlx22WVh0S1btjRHH320DSDBVeIK5qwnnnjCfPLJJ+bbb781Cy64oFl66aXNxhtvbLbYYgt77t6fDV98YZRHh2ZWzCSQIEg6VFLgpPsMPY5HQIk8Hhu9UrMI4AMnkDdK4oh8yJAhBhM4MmvWLLPGGmtkZEej3nfffW0aFs4WLVrYMRv/OdKrVy/rW7cnzj8xnxPnha+eIGLG+lLmc6qTeFhSIqcmBBUQfICkIXKi4AcPHmxuvfVWm8f/h7kEH4ZLyD6RH3vssYZyfDM1kZCQJKYYyEckG9FAVjQ+z/Fl4YUXtsFmEF9aSSJyTD3MOEV4D4LjwC5Koog8l/oyc3UnW1HPeO6556xlBXMVZH/DDTcYOlmULLfccubyyy8322+/fXg5Dl/Ko60xXUW9H+211157GWbdxQq8CytVhw6UyOtQY1fYq95///0ZLsN77rnHjBw50r5FHJFjOj/kkEPsPS+++KJV0NzXJgAbDkDQwOEKNw2lQTjJzQfnHHXUUTaJgGcC30qdz61P0nG1EznBCb/99ltYB5ZyPfDAAzb6MBuRo43h6/jiiy/C/FEHkOfo0aNDsvCJPCqPm9auXTvrH5G0OKLh+vvvv299/eI/kTz+5ymnnGJOP/10Pzny3CfyVVZZJeOdCdKQicpdd92VYToiHQuDiE/kudY3FyI/99xzzfjx4+XRsZ/MaJkVN/kv8j8OX3xiV111VWw5cmHbbbc1N910k5zqZ44IKJHnCJjeXmMIoCQwPiNxRM5S4RVWWMGw7HiXXXYxkD8roJDp06dbSzCfWEuxyCKs7MEnjrBcOmp5MtbWDTfc0N4zZswYgyW01Pnsw1P8q3Yi5+Vffvll88Ybb4TVQQvGZJyNyHv06JGhRaPdYSLB1ApZ0zgi7gQhisgxv+NHIagBf4c0KPkhGrRezPVIHNGgMR555JEZS+QgFczHLJtDU+UeEUiXL0828Ym8U6dO4SyUvG6g2cknn2yjL6VMrAnDhw+XU+MSeT71xaz1yiuvWBMS9RfBrL3DDjvYU4IWMadvs8024ewZfDFvoXnTsVga52IM6cusOA7f3Xff3Xz88cf2GYsttpi59NJLDa4TXCJYXdx188zc11tvPamefuaAgBJ5DmDprTWKQBoip4KQd5s2bczPP/9sSZ2xBDM7GjpCnBGau7gFu3fvbq2JWGKjrH/kIXiOaHcE8z18VOp89uEp/lU7kTNooFXjl5Aoa8ADeDQ0dx25u/wMX4QEMPAe+CdYwiaBXxAOZUOeIhAJ68ejiBxzMT56hIaDTNwABvy//fr1s9fjiAbTPI0pgg+F5REiaJ1o4iJ+TICk+58+kYON++6QGcvBmHFyryyx2HTTTa3f+qyzzgqLdIm8kPpmi1r3rxOkggldxLccuPWKwpdNe3AZiBBzQKAf6QjPc8tnQpOL+0LK1U9j+w19REURKHcE0hI5ygNE7rtP5f2OO+44c/HFF4ebZTFOY/2Dc3BXRgnpMv6giRNgXOp8UfWKSisJkbMemoX6+MdF0GLxN0jgAOkukeOfcEkSzZM/V9Ac0ZBFWEd45ZVXViHyqGVcmE3Er0J+SETMxFFEw6QDvziTCRG+NNLQpDFRYdIC4SJoqTyHJRFJ4hM51gu+lK4VAw30ww8/zJgogA/PjyPyQurrE7VrFeBd/vnnn4ygFNwbvCeTJCZhAwcOtEs95L2zETkRo8Q7uDvqETC3//77W82faxroJmgW9qkaeWH4ae7SIZCGyLHiYVJHA0dYGcWYStQ7ih5aOsISNZQ3tGzGMyyZSRo5QbeyiQxKHqb4UuezFU/xr2REjp8cs7jr7wYcTK4iLpFzjUYUufnmm+2ALufyyUTgr7/+sqf4i/En+xo5WrpENUo+Pokyl9kYPpbnn3/eXo4jcjRAl1zdsuKOif7Otu1sFJGzxEw2QqBsNFB2HcI8hBD4RdlPP/10LJEXUt9sRG4rEfzDfI4lguUbRMWzusBfNsK92YiciRLvO3bsWCm6yifRqGj+uGsgeZX8EFAizw83zVV6BNIQOQqLbNpy4okn2mBY2TiGQN+OHTuG46aYyNkjAystblWUkihhm28ZuykfDil1vqh6RaWVjMh5OOvI3aVUfiCcS+QABpmITJw40S5nknP5dLc3pbzXX3+9CpFjDoecfdlxxx1DvyvEyNI2tOg4Isf/6+7h7pcXdZ7GTx5F5EwwqJ/43NFGmVlKdLgEfIFLnEZeSH2zETnWB+IccAOkkTREzrtC5ASWsNwjTlZeeWUzYcIE1dDjAMqSrkSeBSC9XDYIpCFylrmiSDCOoowxhruCEkmsEooGkedEoLs7xv3444+RisG7774bun6vuOIKaw0tdT73PZKOS0rkVIQZE0BGiRAx15g5ybIDzhngCbhyhZkUDSQaIP52iMXXyP2odMqANDC5i78Z0+7jwR69SByRQ0YE7omcf/75GcvWJN39JOhCAibcdPc4ishZXoV5XawE7v0c47OhPklEXkh9sxE57eFaDKgvcRBYObCMMBEhhkAkDZHLvbQNAW68OzsxYXkQd4Xc45YnafqZDgEl8nQ46V01j0A2ImfCz8QeQTPHhRslWGVZ2cQeH4xNjF+i3DG+uMtjJT+7wh1++OH2FEsocUtwUinzSV2yfZacyDG9YmJ3faFSSZfI/UCttm3bmvPOO09utZ/8sImASgI+byKdfSInUp00d6bG2kFMLiKsIxQffhyR4yMBMJEobRs/NjM/BLONP/mQvO5nHJHH7eCGXweSw3+TROSF1NcncllpIPUmsp5gNBGWg2ElELnvvvusP0nOXeKNwpfJGMsSRQgUZNMehMBGlsVdc801ctnGVoibIUzUg1QIKJGngklvKgMEshE5PEKcEOMHllcUwCghmJmxm6BpzO34yvGrIyx7jVoqjKWTADmEFVIEHZc6n314in8lJ3LqBGFGzZxcIscfzP624v9mJjVq1Khw5sRSJMgd4hShEfEL+0TOdchDIs5pSLRdfiFHxCWqKKLBh4v/HV+1CASMVirwY4e0AAAWhUlEQVRrvGlsvjCyxpylDszqskkckRNsATn6yyN23XVXO7uk3CQiL6S+PpETbMZsFN80bgh81ZieRPiCSzAanQqyeOqpp+RyVh85+8e3atUqvJ+lam78BG0luzNx05577plB7GFGPciKgBJ5Voj0hjJBIBuRU02ssljwGKP50S0/foZgOKyvuCbhFGJ6sOYSFIdZHYsp+224+dilks24mCiwLJnrSKnz2Yem+FcjRM5AL9vkuXV0iZx0f3MSNGqC2yB1Gs41txIFT6Q7JBNF5JRHsBQmdPzo4msmnRkd5n7WqSNxRM41zMUEmLnCembxsbvpaJAQTjaJI3Ly+XUhjZ3NwA9JInKu51tfoj2ZKPlCdDqmKIIRXf84GyegdYMr+Pu/zEZ9qTfivxPY0y5bbrllRrswWSBOgA6Ixi9rzCkj6ZfhuK4Sj4ASeTw2eqW8EEhD5ChTssIJxYdodMYS4nhQJlDSROlgZZLs1kaMD9o4gpKABs5eGYxHlPnss8/aa/7+7aXOZyuR5V+NEDl1gkzxP0gwF2k+kaON41NH20sSNoMhQEo0Y5/I2bVHtOSocmg0VxuMIhpmewhkgknetQTYC94/1i3G/bCJd6sN0nDrR2S8bEHqa8ZMYiBJAgORbESeb30l2M7dlU/qDckTGMg7uu0n16M+cTHgl0Li8MWCwE+lMtFLEoJb6OCCQdK9eq0qAkrkVTHRlPJEIA2RQ9ho2rhaRdhQirFJYqBIZ9zGTy6Cts1eHO7GYiiLlCfCxADFDTepSKnzyXOTPotO5P76b4j4zDPPjKwDwWLuVps+kUsmzNNsBuIuXeMaAzkETIQ7DSfCLAySEWHpABo8L+uaqTGpsN5ZfCVyP4v+Mb+I+L9Ahs+WmRyR0xCeK2j9BFagnaYVVyNHs2dJF4SNYHUgMl+sD8wciaAU8YncN0lzX771JbAPF4i/5A4ixyzFs/EhsQOSK3QO4hlwM0i9aSt2v+P9kvBlFowJH63fnySw7SK+c2bO7vp999l6nB0BJfLsGOkd5YEAYzbjCBK3RSvXUPoYNxivfJ5AwWOnSTRxxh9XcF8ynjBhcEkfRYpxCssjP+TiS6nz+c/3z4tO5P4DinmOP4PZE34KCFN8smmfQT72Jcf/3iTQsAmm8hs2bVlyH8F71AmTM/Vh57lCy5Syq+Mzn/ryBUczZ0IAIbskShqYUi7Bd2AqLopC6o/PnDLpvGjoTLpoc5ngFFJ2Xc+rRF7XvwG1+/1ZIjwr2ByGMZnxOM14hBbOOIZvnDGMsSbNOF7qfHEtV1FEHvcSmq4IKALpEVAiT4+V3qkIVAICSuSV0EpaR0WgiAgokRcRTC1KESgDBJTIy6ARtAqKQCkRUCIvJdr6LEWg+hFQIq9+jPUJikBZIaBEXlbNoZVRBApGQIm8YAi1AEWgshBQIq+s9tLaKgLZEFAiz4aQXlcEahkCSuS1rEH1deo8Akrkdf4roADUNQSUyOtai+v71nYElMhrewvr+ykCHgJK5B4geqoIVDgCSuQV3oBafUUgVwSUyHNFTO9XBMobASXy8m4frZ0iUHQElMiLDqkWqAjUKAJK5DUKvz5cESg9Akrkpcdcn6gIVCcCSuTVia6WrQiUIQJK5GXYKFolRaAABJTICwBPsyoClYiAEnkltprWWRGIR0CJPB4bvaII1EoElMhrZbPqS9VhBFIR+fjx4+fWYYz01RWBWoUAv9vcqVOnWvVO+jKKgCKQjEC9GTNmKJEnY6RXFYGKQUA18oppKq2oIpAKgVQauRJ5Kiz1JkWgIhBQIq+IZtJKKgKpEVAiTw2V3qgI1A4ElMhrRzvqWygCgoASuSChn4pAHUFAibyONLS+Zp1BQIm8zjS1vqgiMA8BJXL9JigCtQsBJfLa1Z76NopAVgSUyLNCpDcoAhWFgBJ5RTWXVlYRKBwBJfLCMdQSFIFyQkCJvJxaQ+uiCJQAASXyEoCsj1AESoiAEnkJwdZHKQLlgIASeTm0gtZBESgeAkrkxcNSS1IEKgIBJfKKaCatpCKQGgEl8tRQ6Y2KQO1AQIm8drSjvoUiIAgokQsS+qkI1BEElMjrSEPra9YZBJTI60xT64sqAvMQUCLXb4IiULsQUCKvXe2pb6MIZEVAiTwrRHqDIlBRCCiRV1RzaWUVgcIRUCIvHEMtQREoJwSKTuS//PKL+f7772Pfce7cuWahhRYyK664oll44YVj76sNFz7//HPz999/Z7zKAgssYFZbbbWMNPfkzz//NF9++aWbZI+XWGIJs/zyy1dJL5cEv95LLrmkWW655cqleloPBwElcgcMPSx7BP79919Tr149U79+/dR1hWfIk6tUSj7/vYpO5DfeeKO54IIL/OdEnq+00krm4IMPNscee6xZddVVI++p5MStt946clLz5JNPxr7vuHHjTP/+/au8duvWrc2AAQOqpOeaMGfOnIw6Lb744oa/QuWtt94yhxxySFjMQQcdZC677LLwXA/KBwEl8vJpC61JMgJfffWVVXwg8Z9++sksuuiisRk+/PBDM2jQIPPKK6+YadOm2XGtWbNmpkWLFqZr165mkUUWicx75513muuuu84whn366aemSZMmZoMNNrB59thjj8g8JJY6X2xFggs1SuRSsVVWWcVMmjTJrLDCCpJUKz632mor88MPP1R5l7PPPtswmEbJMcccY1544YUql4pF5A8++KA59dRTw/JPO+0006VLl/A83wMl8nyRK30+JfLSY65PzA+BPn36mAsvvNBm/vXXX02DBg0iC5owYYI54YQTzM8//xx5fc011zRPP/10FQWqffv2BuUpTnr27GknB/71Uufzn++flwWRU6kjjzzSXHTRRX79Kvo8jsg32mgjO3HxX+67774z2223nUFr9qVYRH7vvfeabt26hcUrkYdQ1JkDJfI609QV+6LffPONGTp0aAaJxhH5J598YtZbbz0ze/Zsq7Gfc845ZqeddrJK1OWXX26wgCI777yzmTp1amiih8AhZKRRo0amb9++Bg3+tddes1ZlUcIeeughs/fee9v7+FfqfOGDEw6qncgB6MorrwyrgC/1/fffN8OHDzc0lggAQjK1SeKInHd87LHHzOqrr57xurfddpvp3bt3RpqcKJELEvpZKAJK5IUiqPmrC4EDDzzQfPbZZ+bNN980+MZdiSPyjh07WtM49z788MNmzz33DLPh86bM+++/36a9/vrrZuONN7bH66yzjvnggw/MMsssY5/nxi5hYdxss81sjBOTApkMkLHU+Wxls/yrdiLfcMMNzeTJk6tU49FHHzWdO3cO0wnmYibkC7OsJ554wjDr+vbbb82CCy5oll56adsYW2yxhT3383BOWTQaWu5ff/1lg+togB122CE2D/l+++03884771h/yddff23WX39926D5+PCTiPyMM84wJ510Eo8MpUOHDhlfmPBCcBBH5GnrSwAdf88880yG77ply5bm6KOPtoEhm2yyiftIO8NNi30a0zo+LsqjozLbpc0bNmxoZ8/54JtRWT1JjYASeWqo9MYSI4APHGUvSuKIHG18+vTplsAhcl+ee+45s/3229vksWPHWi2cMZ6xHenVq1ekNVjM5wQo46sn2LjU+WwFU/yrMSK/++67Tffu3cMqYvYg4ECEmRTBUjfccIOhAaOEqGhMJ9JI3IO2D0F+9NFHUVmsH55gsr322qvK9bvuusucf/75hsh7X7bccktz1VVX5RSJnUTkvgWCZxIc50e5Sz2iiDyX+o4YMcIMGzZMiov85AvPaoJ8sE8icsobPHiwNUlFvR/RpbTHJZdcUpTAu8iX08QQASXyEAo9KDME0Jxd1+I999xjRo4caWsZR+T4zX///XfrS8es7svMmTPN2muvbZOHDBlievToYQjKJsgaQbmAf3y59dZbzVFHHWWTH3nkEUPgW6nz+XWKOy85kTOov/HGG+bcc8+1Wq9UjKAGZkAiXB8/frycxn4yW8KHQaQhpvoDDjggIyo7KiNaPZMGdwLA82m4JGncuLFhRsez0ohP5AT1ffHFF2HWKVOmmLXWWsueQ8po6SKk8wUU8Yk81/rmQuT5YJ9E5Pi6mARlk2233dbcdNNN2W7T6wUioEReIICavWQIoMi1a9fOPi+KyCF9fNto8YcffrhhDPFl4sSJ5rDDDrPJTAwwtbMCiHwIy6WXXXZZe+z+Y0zDooyMGTPGYDEtdT63PknH1U7kEC2mcBEAxxzsSqdOncyZZ54ZBiFgdt1mm23CmRlLD4gehHiZeaFRs7xABOJhdoUJn3JE9t9/fxuhjbYLUboTg3333ddcccUV9lZmZPhZRPCZsHwKTfGBBx7I8OXjf7nmmmvk1sRPn8h5T5ldktENNDv55JMNxC7CcgniCERcIs+nvizJ4A/TEFiI4P/B3YAQMY8rIx/sk4h89913Nx9//LF9xmKLLWYuvfRS62d6++23bTCLu26eGTmmMpXqQ0CJvPqw1ZKLi0A2Is/2NPgGXzfjHmb7WbNmWXce1mAsvih1UVZCykUxZIk0Ipp8qfPZh6f4V+1EnqIO5rjjjrOkhs8U8SOrmUFhQhfxtVchOdavY/oQITpbllr9888/luzxeyM8S3z3LtGwkQmzNgl8IOCCdYh8EURYwoW/PZv4RE65TBBEKIOy/vjjD8O9kCiy6aabWr/1WWedJbdm+MgLqa+PrTuZ4GH+9bTYxxE5s11cBiJMkgj0W2qppWwSz3PblgkNfnuV6kNAibz6sNWSi4tAIUT+448/miOOOMJgFkdQ+GSPk1NOOcVaCeGBKFcq95Mu4xSaOIHIpc5HPdJIWRA5FWXWhFmVRfuQrhvwwA5w7AbHzAlCHThwoHnppZfC9xMiv/baa83FF18cpnMAQe62226GwDjMJP6mAJi60UpF2KAGcnOFhf+uaZjGPP30091bIo99Isel0KZNG+takAxooGxkQJkimM35AkUReaH19YnaJ/J8sY8jcsrbfPPNrSVF3g8LDdYSNH+uaaCbIFOaTyXy0uCsTykcgXyJnChzrKwzZsywlUA5gOxkN1HGPSyeSRo5wbkoHki/fv2sKb7U+ezDU/yrdiInMpCHiODTwCyOGdnVnrnOwv9WrVrJrfY+/N8sRSB4jS1P/SUJ3CxEjvmWBmMmFiWQOOu08XWIf9w3U0fl89Ooo2xS4F9zz6OInCVmbl40UHYTIvgPwZxPZDmbF0QReaH1zUbkUn/aKBfs44ic8nhfYgviZI011rB+K9rFdcPE3a/phSGgRF4Yfpq7dAjkSuT40XHDXn311TZol/EUczjBtrh5RbDWEvxLGspGlGC9ZVUNwo5xlFvqfFH1ikqrdiKPW35GZfbbbz+7bEAqRuQyDQDZE/iFKTqNCJFzL8sQ8MGyvI3AujhhNzNmVwS4oQHnIkQvov1nkygix1yz4447hnVDG2U3IonMl4AvAjSiiLzQ+mYj8nyxTyJy2gEiJ2CEZRxxsvLKKxt2aFINPQ6h4qQrkRcHRy2l+hHIhchRfrB4yoolVgYRz7TLLrtUqShjvihUKH5RCsS7775rmjdvbvMST4XVtNT5qlQ8JqFGidyPZhbSZ9AXkKk3e4Hjp8b8TjQ3ZNjeiXB3iVzeE7MIy6lefPFF+wnB+/Lss8/aDQHatm0bXoJI8QsnCQEQ+KmzSRSR8y582Z5//vnI7PhieJ84IuedCqlvNiLPF/skIpcXhdAJcOPdcY1geSA+wJWotnSv63HhCCiRF46hllAaBNISOS5KItOJM8J8ft5559llZrhko4SgY9nHhHFILLTuvbhUiYRHsJgS31TqfG59ko5rjMgZ1FlWAJmKSCQ50d0ERIngO3eXFdx3330ZfmwZ/HkZNoBBWA/tmukhGgLf2FhGhNkagWVu2VHaNlrqU089FWrRrElkKVo2iSPyuB3c8NdAcvhl4oicTXEKqa9P5Ky5d5e95Yt9HJGzcxKR/yIsD2TfY4Q4CJbFuasAcMWIm0Hy6GdxEVAiLy6eWlr1IZCGyFmmy7jBeMJumVhyZfe2uJrhQxdNHYUyKuYJi6jEXKEIEpxc6nxx9ffTq53IITyXKKgAZIv/FW3ZFRbz4ydFI8asIQJ4Ym7FR85ABLGKCJEzMWB2heAPx7yOuVaEJV3M3EQgDL4A/vPwp5BGGQTY4R9xN9bHRCxfAikr6jOOyLEWQMb+soddd93VjB492hYVR+RcLKS+PpETbMYsE9MS/iS/7LTYxxH5//73v4wJFcsEiR4VIRiFCZxILsv7JI9+5oaAEnlueOndNYdAGiInLoof3UJ5QxGSvTmSao1fnPsxq2NhZSMx17yOwodpnuXO6667rr1OeaXOl/QO7rVqJ3L3YUnHEC7kBajMjlz/OCZ3yBo/Mpve+78OhtmdXcFGjRplgxrkOWzAwtpoAhZoYEwlIiw7YF01a9R9suEeTODM6gj6Ev816fy8nbsOm7Q4iSNy7sesw0TDFd6Bd0GSiLyQ+vqmeXk+5igmQURn5oN9HJHzxWdXPBdDJgvECRAbgLVF1phTl6RfhpO66mdhCCiRF4af5i4dAtmI3F3rjcuS7VaTBMWSJcYICibaOIIygQbOnhosV8O1K9ZixmVXGS11PlvBLP/KgsjZapUI9qZNm9rqErTA2vKkYDX3vVg+hm+X2RNLDtylae59cozmSQO6a7oJZiCKMemZzOAgHtnuT8qL+0wicl8zRvtngiJr6ZOInOflW18JtvM35aFMSP69997LC/s4IqdcVigQXBi14oDrIkyc6LiCgaTrZ3ERUCIvLp5aWvUhkI3IsbDirksrKHOyTwV8gWvVjZ9CscOVKoLlFD5yI95LnU/qkvRZdCJPE1UNWGjLzI5YT0yQAkTmCkSGf8L9hTSuAzyBDPzQhwRKMfC/+uqr1jQMQbHmmwbDn+wLPwyCNuz+LJ3cg4bOhgEEZLmEju+aLwtR7v4vlkneqE+XyJk8oN3Le1J3NkqRd5D4ACnHJ3LfJM19+db35Zdftj8SwLp2VyByJiv5YE9noC1FxEoi58xuMeGj9bvYcp0ZMvgyI5YNGCSffhYfASXy4mOqJVYPAhAUYz2CVc//PXLcntm0cLdmWBuxCIrg5mTcYcIgG3JxDYssUepYKNkRzpdS5/Of758Xncj9BxRyTvACgQysHycAjCAptPc0gkkXky3LnZhh0TD42WVdYFIZNCjERF5M/qxzFnNMUr6aupZvfcnHxAecmQy5JFoI9kk4EB9Be9Ip0dBxpYCvTHCS8uq14iCgRF4cHLWU2oMAHAHX4BuHZxiTUL6ySanzxdWnrIk8rtKarggoAvkjoESeP3aaUxEoRwSUyMuxVbROikA1IqBEXo3gatGKQA0goEReA6DrIxWBmkRAibwm0ddnKwLFR0CJvPiYaomKQFkjoERe1s2jlVMEckZAiTxnyDSDIlDZCCiRV3b7ae0VAR8BJXIfET1XBGo5AkrktbyB9fXqHAJK5HWuyfWF6zoCSuR1/Rug71/bEFAir20tqu+jCGRBQIk8C0B6WRGoMASUyCuswbS6ikChCCiRF4qg5lcEygsBJfLyag+tjSJQ7QgokVc7xPoARaCkCCiRlxRufZgiUPMIKJHXfBtoDRSBYiKgRF5MNLUsRaACEFAir4BG0ioqAjkgoESeA1h6qyJQGxBQIq8NrajvoAjMRyANkf8fAAD//1GsndEAAEAASURBVO2dBbjcNtaGlTIzY8rMzMy4pTTFtP2bMjMnZWZMm5Sz5SZlTsrM3KacMjP3/n61e7QaXdvjIY9n5pznSWzLliV98tWnA9L0GDFiRJdRUQQUgbZA4P/+7//MsGHD2qIt2ghFQBEw5t///rfp3bt3KhQ9Bg8erESeCpHeVARaB4EBAwaYvn37tk6FtaaKgCJQMwI9VCOvGUN9gSJQGARUIy9MV2hFFIG6IJBJI1cirwvW+hJFoBAIKJEXohu0EopA3RBQIq8blPoiRaA1EFAib41+0loqAlkRUCLPipQ+pwi0CQJK5G3SkdoMReC/CCiR66egCHQYAkrkHdbh2ty2R0CJvO27WBuoCJQioEReiodeKQKtjoASeav3oNZfEagQASXyCgHTxxWBgiOgRF7wDtLqKQL1RkCJvN6I6vsUgeYioETeXPy1dEUgdwSUyHOHXAtUBBqKgBJ5Q+HVlysCxUNAibx4faI1UgRqQUCJvBb0NK8i0IIIKJG3YKdplRWBFASUyFPA0VuKQDsioETejr2qbepkBJTIO7n3te0diYASeUd2uza6jRFQIm/jztWmKQJxCCiRx6GiaYpA6yKgRN66fac1VwSqQkCJvCrYNJMiUFgE6k7kP/74o/nmm29cg0cffXQzzTTTuOvw5IMPPnBJY401lplyyinddSue0P5XXnnFvPrqqxaHGWec0cw888xmnnnmMeOMM07ZJv3zzz/mmWeeMe+++6756KOPzGijjWbxm3766c3iiy9ur8u+JMMDtdYzQxEt/ciXX35pfvnlF9cG8B9llFHcdSufKJG3cu91Xt3//vtv06NHj4r+/rq6umyeStFqlXxhu+pO5FdeeaXp37+/K2fUUUc1Q4YMMXPNNZdLk5M///yzJH388cc3zz//vNxuqeOLL75oDjnkEPPWW2/F1nuSSSYxu+22m9l8883NmGOOGfvMjTfeaC688ELz3nvvxd6feuqpzTbbbGO23XZbM8YYY8Q+Uy6xHvUsV0ae93/66Sfz22+/uSInm2wyd17LyU477WTuv/9+94r77rvP9OzZ01238okSeSv3XmfV/fPPPzfTTTedJfHvv//eoOwlCePmiSeeaJ577jmrTKE4zTnnnGbDDTc0e+65Z+q4O2jQIKt8jRw50v6do3iRZ5VVVkkqzjBe55kvsSLRjYYTOYUvsMAC5vrrr+82owqJfLzxxjMvvPBCWn0Ldw8NesCAAeaMM84wzBzLCR8IoIfa+TnnnGPOOuusctnt/fXWW8+cfvrpFc0461XPTBXM8aG11lrLvP32267EESNGuPNaTpTIa0FP8yoC9UHg8MMPN8cdd5x9GZP2cccdN/bF1113ndlxxx3NDz/8EHt/pplmMo888kg363CfPn3M5ZdfHpuHxIMOOshODsIH8s4Xlh9e50LkFIqWvuWWW5aU3w5Ezkd26aWXlrSr3AWzvAsuuMBNbND2dt5555JsaNxogL/++qs1sZfcjC7233//bnnCZ/zretTTf19RzldbbbUSC4YSefmeUY28PEb6RHMRwLWFsoKGLZJE5LggZ599dmuZQ2M/9NBDzXLLLWe+/fZbc+aZZ5qHHnrIvmL55Zc3w4YNc+MuBA4hI9NOO6054ogjrAaPMglfkR+5++67zeqrr27P+S/vfK7glJPciBxt+9577zWTTz65q06rEzmksc4665Ro4hNMMIHZZZddzCKLLGKmmmoq8/LLL9uPydcaAQDtm7zIwQcfbG644QZ7zn/LLLOMvT/RRBPZtPfff9/stdde1vQjD80777zWZSHXacd61TOtjGbdUyKvHHkl8sox0xz5ILDuuuuajz/+2I6boYUzich32GEHa+KmhnDMqquu6iqLz5t33nHHHTYN1+L8889vz2eddVbzzjvvGMZZxmlM+CLEOC200EIGjmJSIJMB7uedT+qUdsyNyKkExOWbjysh8k8++cS8/vrr5s0337Qzr9lmm83MMcccFtQwCAnzCsFiIrPMMos1ybzxxhs2kIwZHCS72GKLuU6VZys5brfddubhhx92WZikMFtjdugLQVNbbLGF9dtIOh8Xs0Vk5ZVXNh9++KHcMsQZLLXUUu6aE9otxM81QXDMHNN8RjyH1Kue+P8lAAwTF31AH95zzz0GbAlIoS0iWBRkMiJpP//8c4kpHJ+2/wdEm/hj+/rrr80ff/xhJ3784TC5oc0iPMMfKX4svg0RmRDRv/wTwY/+4IMPWuvGV199Zd814YQT2v5n0uW/mzxZTOtZ6yp1KMpRibwoPaH1CBFgPPv999/DZHudROSMtyhKEDhEHsrjjz9ull56aZuM9RQtHC6Ze+65bRqxTccff3yYzT7HeE6cF776SSedNPd83SqVkJArkVMHggMwcSBZiJzo6pNOOslcc801Nk/438ILL2zNL0SGi2A+wV8igln50UcfdbMySefYq1cvc+SRRyYGQvjP+udoyf7Mj3snn3yy2WijjfzH3Dkf09Zbb+2uCex79tlnrZknJHJcENSJD8gXfPH+LJXAuYknnth/pNt5PetJ0AgR+QjkS3369u1rCBBBIEYCUkS4d+CBB8qlPV5xxRXm6KOPdmmbbbaZ/SNikoAlw1/F4B6KTiD8Y445xqCBI5B7moDNsccea8me+AXKZSCIEwIRmVTJHzvPpBF5pXWNK7OZaUrkzURfy05DAM2ZeB6RW2+91Y4zXCcROUoFCgbjPGb1UFDqUOYQxugDDjjAKksEDiNM8IWTbMJ//4Nzevfuba9wf+ISRcnKM59fn7TzhhM5IKOFibCM584777SaZDkix0ex/vrrm08//VSyxx7xJ19yySVuIA6JnCjxpFkeLySgok80S6tE0EJ33XVXlwUyQDtPikhHe4RURViWJ5rovvvua2655Ra5ZY8Q15prrmk/MCwHEH81Us96+kSOpk0b8GWJ0LdYO0RmmGEG88ADD8ilPW611VbmiSeecGl8gGjuWBv8ZYvuAe8ErZmJIISblciZEA0ePNh7S/wpkyZ8YdQFSSJy2ltpXe0LC/SfEnmBOkOrkooAE3BW6SBxRA7p49tmfN9kk03Mkksu2e19N910k9l4441tOhMDrKFM8smHMO7EKUSY13FhIgMHDjTbb7997vls4Rn+aziR03jWRb/00kuuOmhe++23X1mNnJnTzTff7PJBlpAb/nbI2vc7+xOEkMh5AWSPBo1Z9amnnnLv5ISIxjiTTMlDwQXBaqeddppLXWGFFWxnu4QKTqgPs7y//vorNheug/nmm8+al/lYIcisUs96+kQeVz5LDJm0+W6CoUOH2jX0PM/EbIkllnAzbiF6licSvCey9tprm913391gjSG/T8T0/7nnnmuxZnKEVcCfABBvgFAXTGd+eeBIFCoTAWbwaPhiYSAPpC+z7SQir6auvLtIokRepN7QuqQhUI7I0/JyD4LH140pHbM9yhR7laA8YalDOUChjBMm7VNMMYW9JZp83vni6hWX1nAiZ9BAq4YExGQCeMyM0H789eX+8jOAZ5mVCP4JlrAJidFBvBuTtQiDNCb1OCLHd7rgggvaRyFOfNYiDPD4eENfu9yPO0I8DOoiYsqV60qPzBplZpmWlzpC5kRVohGXk3rWM47I11hjDTtTFQ0Z05P4/qmbTNo4pw+EaLkmgG+PPfawbSGfyN57722JnGsmN5DrF198YW/zjfi4pwW73XbbbYZ3ifhxCaQxSWBCKeL3YRKRg3u1dZVymn1UIm92D2j5WRGohci/++47s+mmmxrM4ggTdf5+Efb0OP/8861SiMIQJ6QTvIygwR922GG554urV1xaLkTO4E0wAWZREQKMGBAl4IB0n8jxT2DyFiGoiX++sPAfH6sIpHLeeed1I3JM0zTUF5YT+AFxmHsxZxO9eNlll/mPlpxTBnnrSZBSAC4ENOi77rqrRMuU+/6RehA4GAZp+c9wXs96hkQeZ4XAX77iiiu6arCznWysIpMsucmEC0vKRRddZE455RRJtkf6bKWVVrLR/5i3klwWaUTOJMB3qWCVYfLDDJyJ4gknnGCefvppV24WIq+lrq6gJp8okTe5A7T4zAhUS+REmRPNLstRiV2CAxgDEJSIs88+O1UjJ95HgnWJ60HRyjtfVqByI3JMrphFfX834DBLEvGJnHt0osjVV19tzaRyLUcmAkQ3IwS84RMONXI0WH89Is+Gvlo6nq1kQ58yz/oiWiQ7sJ166qnuFsES/kTF3fBO2HnIN59j0o8jYiwX7HCHtQG/O+dizfBeZ9evszQiTepZz5DIiQCNKz/EFusLlhTIWfqK7WbFZI4pnj80ZtBxAokTxY+bxg9I49k0Ipd3YT7H/80kjWA6otz9oEF5LguR11JXKafZRyXyZveAlp8VgUqJHD86llkUIlxvrKTBHE7AtB88jKUORYg0f0z264UVULYMhz94b975/PqknedG5FQCPzSmVpEwEM4ncgDDNCqC6VnW/0kaRwhBfKS8j2VJIZEzM2OJgS/hkqxKiTzcxIVgNCLjwx3bpEzWK6JF+yJrE8VszD22YZWPR56lfQTzMVHwP7q4qHDJI8d61ZNJTkjkgpmUJUf6yo9WJyiQpYJMgkT4w2CCJUK8AzEHaO/8ASYJpnj/PWlEzuQH0zkTiSyShch5T7V1zVKHPJ5RIs8DZS2jHghUQuTs3IYSIStf2J4VRQbLYSj+jnEoEKy4CQV3q7h+icvBHJ93vrBOSde5EjmVYAcz8VmElRIiJp3gAgKZROK0P0iNLU9FuwJ0Bu2QyBm4fN8s70wicsz1zOaShMGeZQhoZv6aaZ4/6qijSpaY+e/o16+fueqqq1wSEevDhw83F198sZ0tyg3e6bdb0jmG7yBC03+n/6yc16uevC8kcgIY4yYuWF/QoGXNOZYS+ub222+31SLoBFcGE7dQMGdhiSCOgaMf0CjPPvbYYy4IJY3I+WZYkiJCXWkDwS/UCR+Yv1ohK5HL+yqtq+Rr9lGJvNk9oOVnRSArkbNsjch09ovAfM5YTLB0UhwRYyxxMAgKWGjpI5291EXZYFURMVt556MeWSR3IsesiYldBnm/kj6RE61OR4iwBpvO8QXtTTqD9A022MBqdbUQuf/+cudompjiRag/ARRsXuIL0Y+Qv99mgjDw0YaBd5AbhMeWgaFgymeGKcIaeJ+oJD081qOevDMrkfNsuOKANBHpJ7nmI2QDGIRNdWiXCEtAiGD3l7WBgazhD4kc37f88WKx8Je/Menxl6eAs6/dZyHyWuoqbWr2UYm82T2g5WdFIAuRE+uEi5V4GFx4KHNx1lu/TKyJoqmzFew+++zj37bnWBUldgeFgoDevPN1q1RCQu5ETj0wEcftpOMTOUFTBJWJTxU/KdqrzJw+++wzq/36vxQmG7LkReTUEXO5H1AFiTAzJJgPMznmGchdzP+0H78MEfh8bJA70fS+D5wAMYiQD23ssce2m6wQYY05WvDgPZC4T3qkxUk96sl7KyFyNG7MXHHCbkn+ZId1osyKEfqZCZq/KxtBjrLFIs8wO5YgyZDI+fEZ+gTfGDNo8BfxXQFYcSA0f2e+LEReS12lHs0+KpE3uwe0/KwIZCFy4mtQ/FACGHf8zcGSysGay/OY1VlixiZPvnkdxQHTPOMzO1hyH8k7X1L9w/SmEDmDKKSA9uSLT+Skh78IxtIrBnAG+9dee83+oIjkhziJdGcAz4vIKTsMJpP6pB3x2/qxAqF53c8LkfPDKaGwUxG+aDDLIvWoZyVEjp+b6HX2TfaFyQ07KflL/cL28wy72xErwB8mJi4RLBa4PyQ/Oy/5kec8RwAh+Zk8+f5xot8hawJi+EaefPJJea090j4JYExaflZLXUsKa+KFEnkTwdeiK0KgHJH7a71RHMJYqLAwVsnI5lqMw2jjCFZiNHAUDFy/KEm48BDGBH+Zat75bCXK/NcUIqdOBKXhf/ADm0IiR/vEp44mlSZ0DjvvyEwsTyKnXgTlsTQhaT2iX3dM6nwkQkRyj/x0RhZhbSMavWw7mCUPz9Raz0qInPJYT06QiC/+unJJZ9ZLQGJIyHJfjkzS+MPz9xeIK4PnIWz+OImF8L8xeVfckQh8/OpIEpHXUte4MpuRpkTeDNS1zGoQKEfkWOr836AoVwZKgWyjLdZQPw6Hcdm3juKKI4jOj3jPO1+5NnG/7kQerv+GiFnLHCdh8FZI5JIH8Bmw/aVr3EM7w7RMhDuaqwjmUgZwkbg6hP5TP4BK8lVyxPePu4D905klhkJQHmS96KKLhrfcNdonwRRJExfaS3AWbfPNQO4FGU5qqSeTEJbCIZAqy7qwjiQJwXDyRyPPEFMgEy5J40iAHC4I+prd90LhN+0hV//nBHkGUxe4s0mM/1vEYibHaoGfK+wT3BnEXLAxkFg8wJf20TYiVFmyJoKvXTYjqrau8q5mH5XIm90DWn5WBCAo2bwrbotW3I3ltHC/LCx0bAwlQsAqmjgTBgLlRAiMZQxgGXTcD1PlnU/qlXSsO5EnFVSPdPwZzJ4YvPEjsySqiAJpYPrHtAtpoTlDElmFduLXxk8DyRD4htUBv3GoyWd9Z9xztdYz7p1+Wjipgzzl18n85/xz+pZIe35tiJkxf1D0c7gkz8/DOc9C5BJDwN7JEvRGDAMBMUxi2OCB9fts91urVFvXWsutNb8Sea0Iav52Q4DxgzGCMZfxAX5hQl9O8s6XVJ+WIvKkRmh6cRAgkBHtlQ+ciHxf2OYQTVmluQgokTcXfy1dEag3Akrk9Ua0w9+HqYvNa0IhgI1odNkiMbyv1/khoESeH9ZakiKQBwJK5Hmg3EFlxBE5Zmw0dflJwA6Co5BNVSIvZLdopRSBqhFQIq8aOs0YhwDBfizrInCEuAB8++xWlxYUF/ceTWscAkrkjcNW36wINAMBJfJmoK5lKgJNRECJvInga9GKQAMQUCJvAKj6SkWgyAgokRe5d7RuikDlCCiRV46Z5lAEWhoBJfKW7j6tvCLQDQEl8m6QaIIi0N4IKJG3d/9q6zoPASXyzutzbXGHI6BE3uEfgDa/7RBQIm+7LtUGKQLpCCiRp+OjdxWBVkNAibzVekzrqwjUiIASeY0AanZFoGAIKJEXrEO0OopAoxFQIm80wvp+RSBfBJTI88VbS1MEmo6AEnnTu0AroAjUFQEl8rrCqS9TBIqPgBJ58ftIa6gIVIKAEnklaOmzikAbIKBE3gadqE1QBDwEMhH54MGDu7w8eqoIKAItjMCAAQNM3759W7gFWnVFQBGoFIEeI0aMUCKvFDV9XhEoKAKqkRe0Y7RaikCVCGTSyJXIq0RXsykCBURAibyAnaJVUgRqQECJvAbwNKsi0IoIKJG3Yq9pnRWBZASUyJOx0TuKQFsioETelt2qjepgBJTIO7jztemdiYASeWf2u7a6fRFQIm/fvtWWKQKxCCiRx8KiiYpAyyKgRN6yXacVVwSqQ0CJvDrcNJciUFQElMiL2jNaL0WgQQgokTcIWH2tItAkBJTImwS8FqsINAsBJfJmIa/lKgKNQUCJvDG46lsVgcIioERe2K7RiikCVSGgRF4VbJpJEWhdBJTIW7fvtOaKQBwCSuRxqGiaItDGCCiRt3HnatM6EgEl8o7sdm10JyOgRN7Jva9tb0cElMjbsVe1TYpACgJK5Cng6C1FoAURUCJvwU7TKisCtSCgRF4LeppXESgeAnUn8h9//NF88803rqVjjDGGmXrqqd11M06+/PJL88svv9iie/ToYaaffnrDMQ/5559/zDPPPGPeffdd89FHH5nRRhvNTDPNNLYOiy++uL2uZz1+//1389lnn7lXjj/++GaSSSZx1406CcudaKKJzIQTTtio4vS9NSCgRF4DeJo1dwT+/vtvO16PMsoomcvu6uqqaoxvlXwhEHUn8iuvvNL079/flTPvvPOaIUOGuOtmnOy0007m/vvvd0Xfd999pmfPnu66USc33nijufDCC817770XWwQTnG222cZsu+22hglPPeTVV181G2ywgXvVeuutZ8444wx3XcvJTz/9ZH777Tf3iskmm8ydN7JcV4ie1AUBJfK6wKgvyQGBzz//3Ew33XQGEv/+++/NWGONlVgq4+yJJ55onnvuOfPKK6+YccYZx8w555xmww03NHvuuacZc8wxY/MyTg8aNMgwho0cOdJywzzzzGPzrLLKKrF5SMw7X2JFohtK5Gno1HDvnHPOMWeddVamN0C2p59+elUzyLCARhLqWmutZd5++21XZPQ79e68keW6QvSkLggokdcFRn1JDggcfvjh5rjjjrMloUiMO+64saVed911ZscddzQ//PBD7P2ZZprJPPLII9Ya6j/Qp08fc/nll/tJJecHHXSQnRyUJEYXeecLyw+vO4LId9llF3Pvvfe6tjdaI+f9O++8syuPEzRurAC//vqrNbGX3Iwu9t9//255wmeyXDeSUFdbbbUS64JP5K+//rphQiKy/vrr28mJXOuxOAgokRenL7Qm8QjgDkW5QcMWSSJyXJazzz67tRaisR966KFmueWWM99++60588wzzUMPPWRfsfzyy5thw4ZZ7Z4ECBxCRqaddlpzxBFHWA3+hRdesFZl8iN33323WX311e05/+WdzxWcctIRRA55+ibhiSeeOAWS2m8dfPDB5oYbbnAvWmaZZax2jt8Yef/9981ee+1lTTnyUL1cEM0icnxL3333nTTHmsDGHntsd60nxUFAibw4faE1KUVg3XXXNR9//LF5+eWXDb5xX5KIfIcddrCmcZ5FYVt11VVdNsYl3nnHHXfYtBdffNHMP//89nzWWWc177zzjmFcpjxM+CKMowsttJD5888/7aRAJgPczzuf1Cnt2DQiJzjqjTfesP/wbUw11VRmjjnmMHPNNZcFNqw0JhMCxkRmmWUWa2bhHQSTMSvjHYsttpjrKHmW9+NfEcH/Mfroo8ulO3766afmtddes3WC+AmK41n+VSIrr7yy+fDDD10W4gaWWmopd83Jm2++adZZZx2XRhAcM8HQB1QpTmlE/tZbb7mgPwrmg/YDSH7++ecS0zlBcjPMMIPh4+cPAj/TJ5984uoskxVwJ7CNNongP/f/MCS90vbU0u9SJn3/4IMP2gGCWfZ4441nppxySvsHSuBhp4kSeaf1eOu0l/GPMSJOkogcbRyXHwTuW17lHY8//rhZeuml7eWll15qtXAsiHPPPbdNO+SQQ8zxxx8vj7ujmM9HHXVUg69+0kknNXnnc5Upc9IUIn/44YfNYYcdVkIKUk86cp999rFgA6AIJhF8ICL4TR599FE305J0jr169TJHHnmkC24oF+wGgR1zzDElWrT/viWXXNLWl0lGFgmJfMstt7T18dvDewYMGFAy69x8882Nby2oBqc0IifogyAQkZdeeskGhMj1888/bzbddFO5NBtvvLE56aST7AzUJcacUO/evXuXDbKrpj219DuTD+qPKYyZdSisXMBdcOqpp5bgED7XbtdK5O3Wo+3THjRnVvqI3HrrrXac5DqJyPGbsyoJTsCsHgoKIIofcvLJJ5sDDjjAoFwRaIwwycfsHso111xjxzXScZcS+JZ3vrBOSde5E/nFF19sB9ekCkn6sssua5g9yTKxcEAnAjFp5sY7CJLo81//RxqRs1Ruk002KdGgpQ7+EYIloIKgiXKy7777mltuuaXkMTTUNddc034wWA1YFpYm1eJUVCKvtj219Ds+tvPPPz8NZnuPidpVV11V9rl2eUCJvF16sv3bccUVV9hVPbQ0jsghfXzbcAHjOH/Lodx0001WKSGdiQGm9mOPPdbmIw0O8BUo0hDGUlyeyMCBA83222+fez5beIb/ciVyZkaA+Mcff7iqYfJYeOGFzQcffGCDCvx7gI22h4QDOmkEkGFO+eqrr8xTTz1FkhMIV8wsaUQO4TPzEsGcTHQ2/hmWrBF0IcK678GDB8tl4pG6MNv766+/Yp/BnD3ffPMZfOd8fJivfakFp0YQOR8x2i0WBH+PAGIBEHGHJC17q6U9tfS7bxnBX3/aaadZ6wLuE4Jo/PX2aAKY6DpBlMg7oZfbo43liLxcKyF4fN2YxLH2Ep+EWw1li2W5uDTjrHW8l7F/iimmsEWIJp93vnLtk/u5EnkYPc6AImRAhQgoIHAB0kDQWiFF/NlxAzo+2gUXXNA+y3NbbLGFPec/yBL/OcckIifQAdIWU84EE0xgrr/+emeGYYKwwgorOM0f0zj++HLaNOUzC5SZItdJQv0gc9bei9++FpwaQeRS97So9bRya2lPtf1O4B0TLxECWh544AFDHyO33XabjWiV+7vuuqvZaKON5LKtj0rkbd29bdW4WoicMQBXIWZxBHer7HGy2267WWsd8TJsYhYnpMt4gVKJOzjvfHH1ikvLlcjRvr/44gtbDxbrE4QQrgvEHM56PxHRlMIBHfM0lfeFJQJofyJPPPGEwaSdROTXXnut7Rx5Hh886wZ9QVt/9tlnXRIBXwTBZRGC5y644AJz1113lWiycXnXWGMNG9nODLEWnNIItVofudS3WiKvpT3V9jvEjaVHdvSjDQTkrb322maJJZaw9zox0A0clMhBQaUVEKiWyEUplCWyTNLhC9l4i1VDZ599dqpGTpCsrDQ6+uijrWKWd76sfZQbkQPKIoss4urFYHr11Ve7azmB+DCBirAOEHN8OKCjxfprDHl+q622MpC3CJ3JYJ1E5CeccIL1fcjzcdHlcq+WIxo/gWRMXAj44lysAP57iQkgkrwWnIpG5M3sd4JfwDRJZpxxRvtt4fvqpO1klciTvghNLxoClRI5fnSUMXgEyy4xVpjDCXr1g4333ntvqziRluQCRenEDI/ANbw373xZ+yM3ImcJGBqdCCZrfK+hQO5HHXWUS2ZpAOb2kMhJ454v2223nSVKSStH5JhJWOwvQoCaLEmQtEqPLM8SqwN52YZVPgZ5F37mSy65xK599D+ivn37WlNQLTjVQuRYHoj4F5GodbmuRiNvZr/zhwyR852xfCRJWD5HIGOnaOhK5ElfgqYXDYFKiBxLLsoc8VYI27OyRTZcE4q/Yxwm+LiJPK5ZWal07rnnWrN63vnCeidd50bkbMpCgJcIAQj4o0NhW1O2NxVhZgWBhETOYOT713m+UiIPNTb22w2XIUAA/prwmWee2a4nlPqFxzA6m4ArgsTipF+/fiXR0kRckr8WnCoh8ieffLKkLQQH4s8WqQeRN7PfpR0QOgFuWGuefvppu2yRevlCUCV+sE4QJfJO6OX2aGNWIscFy3jF/h+Yz1EGWWYmcUchGozJWGoRljHj/guFvdSx/CIoeexcmXe+sE5J17kRORVYaaWV3PakmDSYQU0++eQldSPyGTISIXIcE2gjiJyO8n3izOYgV18Y9IYPH+6SyLPAAgu46/AkDLojmOL222+3WwCGz7J+mRmjCNowk4tacEojctazQ94iBOTJLkek4TPin0g5IicSVP5Q0sqtpT3V9jtEfeedd0pT7OY7snSQSFYmiz72WGLCJYMuc5udKJG3WYe2cXOyEDlxUfz98nfNCiCWmPnjWhw8WGtFU2eZKnuXhHLggQeaU045xSaz4Qw7uuWdL6xT0nWuRB4u9UJbxWQhAQihNktQGUROZHe1A3qajxwTDEFmYt5mbTpaOf57hE7DfyrCzj5odbK2XdL9I8FVRNL7PnAmIswO+XBYBoXfeOjQodbv4i+3g8Qh81pwSiNU/DtEa4uAPxMXMOJDZSLz9ddfy223IYwkhKZ1yBD8wAONN2n5WS3tqbbfCTT03QQsByRqVYQgGNb1i7CM0Sd2SW/HoxJ5O/Zqe7YpC5ETyHbzzTdbpZDxGatpOWHMR4nErM4SM3a99M3r7BSKaZ7xfLbZZrP3eWfe+cq1Q+7nSuRsj0lkuWxGTyVYt82ie8zXrPHz5bLLLjNsDINUO6CnETnvDTcNYdKAaRs/Np3pCxHr/Csn4YTEfx4iD8263GfnITRkovhrwSmNyPEVE+DnC+1lokFbZUIj90ONnN3bME37QpQ9mj5/TElEXkt7qu13/jgXXXRRu4mE1JegSb4ntn1lAxjfZYKbBoLrBFEi74Rebo82liNyf603ikgYNxWigHIoy4f3228/98NOTOrRwNnbg+VqKFWPPfaYzY7llGdF8s4n5aYdcyVyKsJaXqIIiS5ME349jF8EE6l2QC9H5JhjCDLDT5Im+M4JUIP4sghryAE3i4Tr18lTLU5pRA6B8atAbEkbJ2yIwsxUJCRyVhBgQQklyxat1banln6/5557zB577FGyDW5Yd64xwzFg4AbpBFEi74Rebo82liNyfOP+b1aUazWuUdkvQqyn/k8zM7771lTilnAB+xHveecr1ybu153IWXeNKVUkLqgNsyfr8tjj1jctY6LF14EJ1F+CxbtYtkUwm0hI9KRDyBCGCDMqNLMwOp1nwt3UqDem4jC6GYsB+dFGxQUg7y93xMxDcAQm+jiBOFg3T7t8s448Ww1OEDFrpUVYO86MUoQfNmEtpKyvJJ2PFzM7PxyAW0E25AkDwNDYeWbIkCElv/vLc5iu08qlnGraU0u/UybfAH3ARE3aRTrCzJxBgJm4bPzwnzvt/b8SeXv3bzu1DoKSjb7itmhlWVg5LdzHQ7ZolTTcnPz9M2HwfyGTfU4Y9+Gp8IesyJt3Pqlv0rHuRJ5UUFw626Dipx45cqQ1sRNMEAdaXN5GpWFSh+yYlWFyRqPPqoUn1Qk/DG3EfI1Znd++xcTDsqcs724ETrgxIHNM+Wik4cY8SW0hHWzQ7mUSxj7FEvSWlk/uNaI98u6kI75/lgYyGFA+Ezz6l7iIThMl8k7rcW1vOQQY0wiaY4wmKJaxIS0WSt6Xdz4pNzw2lcjDyui1IqAINB4BJfLGY6wlKAJ5IqBEnifaWpYiUAAElMgL0AlaBUWgjggokdcRTH2VItAKCCiRt0IvaR0VgewIKJFnx0qfVATaAgEl8rboRm2EIuAQUCJ3UOiJItAZCCiRd0Y/ays7BwEl8s7pa22pImARUCLXD0ERaC8ElMjbqz+1NYpAWQSUyMtCpA8oAi2FgBJ5S3WXVlYRqB0BJfLaMdQ3KAJFQkCJvEi9oXVRBHJAQIk8B5C1CEUgRwSUyHMEW4tSBIqAgBJ5EXpB66AI1A8BJfL6YalvUgRaAgEl8pboJq2kIpAZASXyzFDpg4pAeyCgRN4e/aitUAQEASVyQUKPikCHIKBE3iEdrc3sGASUyDumq7WhisB/EFAi1y9BEWgvBDIR+eDBg7vaq9naGkWgcxHg99n79u3buQBoyxWBDkSgR/S71UrkHdjx2uT2REA18vbsV21V5yKQSSNXIu/cD0Rb3n4IKJG3X59qizobASXyzu5/bX0HIqBE3oGdrk1uawSUyNu6e7VxikB3BJTIu2OiKYpAKyOgRN7Kvad1VwSqQECJvArQNIsiUGAElMgL3DlaNUWgEQgokTcCVX2nItA8BJTIm4e9lqwINAUBJfKmwK6FKgINQ0CJvGHQ6osVgWIioERezH7RWikC1SKgRF4tcppPEWhRBJTIW7TjtNqKQAICSuQJwGiyItCuCCiRt2vPars6FQEl8k7teW13xyKgRN6xXa8Nb1MElMjbtGO1WYpAEgJK5EnIaLoi0JoIKJG3Zr9prRWBqhFQIq8aOs2oCBQSASXyQnaLVkoRaBwCSuSNw1bfrAg0AwEl8magrmUqAk1EQIm8ieBr0YpAAxDIhci/+eYb8+OPP7rqjzHGGGbqqad213pSHAToJ/pLJGtf/f777+azzz6TbGaiiSYyE044obtuxsmXX35pfvnlF1t0jx49zPTTT284ZpGwPZNOOqkZb7zxsmQt/DNK5IXvIq2gh8Dff/9t/25HGWUULzX9tKurK/Pfuv+mVsnn15nzXIh8o402Mi+99JIre6yxxjJPPPFE2wyMrmFtcHLllVea/v37u5bMO++8ZsiQIe466eTVV181G2ywgbu93nrrmTPOOMNdN+Nkp512Mvfff78r+r777jM9e/Z012knTz31lNliiy3cI1tuuWUJLu5GC54okbdgp3VolT///HMz3XTTGUj8+++/N3BHkrz33nvmxBNPNM8995x55ZVXzDjjjGPmnHNOs+GGG5o999zTjDnmmLFZb7zxRjNo0CDDGDZy5Eg7Rswzzzw2zyqrrBKbh8S88yVWJLrRcCJ/6623zNprr92tDieccILZdNNNu6VrQnMRUCL/D/4hkW+++ebm2GOPbW7n1Kl0JfI6AamvaTgChx9+uDnuuONsOT/99JMZd9xxY8u87rrrzI477mh++OGH2PszzTSTeeSRR8w000xTcr9Pnz7m8ssvL0nzLw466CA7OfDTOM87X1h+eN1wImeGdMkll4TlmkUXXdRcc8013dI1obkIVEvkr7/+ukELF1l//fXN6aefLpdNOe6yyy7m3nvvdWXXopErkTsY9UQRaDgCuMUYP+APkSQi/+ijj8zss89ufvvtN6uxH3rooWa55ZYz3377rTnzzDPNQw89ZF+x/PLLm2HDhlntngQIHEJGpp12WnPEEUdYDf6FF16w1jfyI3fffbdZffXV7Tn/5Z3PFZxy0lAi/+uvv8yyyy5rvvrqq9gqPPDAA2aGGWaIvaeJzUGgWiLHt/Tdd9+5SmMCG3vssd11M05+/fVX+8ctZU888cRyWvaoGnlZiPQBRaDuCKy77rrm448/Ni+//LLBN+5LEpHvsMMO1jTOs0zcV111VZeNcYl33nHHHTbtxRdfNPPPP789n3XWWc0777xj43koDxO+CGb2hRZayPz55592UiCTAe7nnU/qlHZsKJFD1H379k0sf/fddzd777134n1u4LN4/vnnzWuvvWaBphPw237yySeGWRsy2mij2TTOMeVLgBPXPO8HSfz888/m7bff5paVSSaZJHYywXNomXToF198Yeaee27bsaFpRt7jH6kbed98801LJLPNNpuZY4457Afg14U8mILeffddl32KKaboZv7hvm8yoi4EofnCLJKP9OuvvzZ//PGHmXzyyW15yyyzjMXHfzbtvFoihzRpr8hkk01W8och6ZX2Zy344DPDryaC32v00UeXS3vkWwE3vrF//vnH9jF/wPjYfB95nEbOux988EE78DB7JxhuyimntH/4Wb6TkorkeKGm9RzB1qIqQgAFgEDTOEkicrRxxnQI3LfAyTsef/xxs/TSS9vLSy+91GrhjM+Mo8ghhxxijj/+eHvu/yfm81FHHdXgqyfgNe98fn3SzhtK5Lvuuqu55557XPlbb721gShEMGcMHz48NrqQzjzwwAPN7bffLo+7I2ZbBs3Bgwe7NILnIA8CGxiERQiyI+hBhAHb981vvPHG5qSTTpLb9jh06FDTr1+/kkh7eQCXwPnnn2+YAIRCxDfvSnIZLLzwwtZUNPPMM7usmHrw7YgwyB588MFyaY/bbbedefjhh10as0MhCiYumJA/+OADd98/AZNjjjnGrLbaan5y4nm1RF4u2K3a/qwFn3LBbpDwXnvtZRggfCG6nbz450R8ImeWTz9jYmPGHgqR8eB96qmnlnx74XPNulYibxbyWm45BNCcmVCL3HrrrWbAgAH2MonI8ZszIceXjlk9FBShWWaZxSaffPLJ5oADDrA8tM0229g0xgHM7qEwjvfu3dsm45Yj8I3xMc98YZ2SrhtG5CxhYhaEeR3BzArZEviG6UTkqquuMksuuaRc2iODI1HCRB9mFWZdaKG1EjmDdxIRS10Y6JnZ+RHQaGRMMD799FN5LPaIJk3MgMwQayEqLBLrrLNOyXKxuEKxWBCVKWXGPSNpjSDyWvqzFnzSiPy2224z++67b8mgIRjEHX0ix3fHZK6c8F3zfRdNlMiL1iNanyQErrjiCrPtttva23FEDunj20ZR2GSTTbpxCRlvuukmg8KGMDHA1E7gKvkQuCrO7YZygvUXGThwoNl+++1zz2cLz/Bfw4j8sssuK4nyleVIzIhkhkX9/vWvf5lTTjmlpKrXX3+9NXf4iWg4mKcxIRN9GEo9iJyZGf4WEdZCU280rDvvvNOZ8rmPGefCCy+UR+0s7+abb3bXaOxrrrmmtRxARr45n4kA78OMVAtRsSxs//33d2UyScJdgWUAq4JvsaAu5557rns26aQRRF5Lf9aCTxKR80fP7Npf906f8I3hlyO4xb8HVj6Rr7zyyubDDz+0EDJBPe2006wbA/cPwTl+XjQMTH9FEiXyIvWG1iUNgXJEnpaXe/yt4yrDJM54+/7771v3F5N4lsei5MRZ1ciLooSrExFNPu98tvAM/2UhcjNixIiuSv/NNddcXVH57t/FF19s33HLLbe4NO5HA2FX5KMsef+MM85Y8sxRRx1Vcj+aGZXc5z0RkdtnohlUyb3ItF6SNyKVkvvRTM3djwLv3L3xxx+/KzL7u3uR/7crbNNdd91l70ezPJePukS+lK4oPsDljWZ2XUsttVTJM9GyBnsfXHycokHW5RPMowjMkmci07p9JnJVlKRH8QYu7xtvvNG1+OKLd0VWA/sPXOR9aUew9uuTNV80cSjJF02AXHm19Gct+ERkXVKnyDxm6xTNxkvSoxiGrmeeecbV99FHH+2KNiwqeSYicns/CoIrSY8me12R5cjljaJkHeZgHw0A7l4a7nneW3HFFSPvgIoiUHwEIveV+3uLNPKKKhxZSbsihcvlP/LII13+yO1r0yMXrUsLT6L4HJeXMQPJO19Yp6TrSGlLuuXSezDIRIN7Zgn9pZgt0JiZ/SBoPgQiiTDbYdMYhFlQRHpyywaisamHvyMXJhbMliw3EKlVI8ckzpIFEczk+E99YQMA36S62267mX322cea4n1/KpsP8M8X3ASbbbaZS1pjjTXMeeedV5NGftFFF3WzZiy22GJmpZVWMosssog1CyVtguAqEpzUWyOvtT8boZET3IKVQARTOf3tC+4Pf+mLaOS4ioh18AMq2cEOa8gSSyxh70n8gv++Ip2rRl6k3tC6pCFQrUZOHBHW1Yi77OvhF7RWCRJmbD/77LNTNXKCWbHKIkcffbQ1xeedzxae4b+GaORRMICbyUR16EKjRBOXf5Fft+R+NAA6reXaa68tuReRn7vnay0RkZc8V6tGHvlASt5Hvcv969Wrl61b2N6rr746ts7RR+TeGQW82Wdq0TjR+tEIk+oZkXgX2lf0xxBbHx9POa+3Rl5rf9aCT5JGjqXCxwwNXNovxxtuuKHkGdHIuR8FH5bc89/FORaIaJLX9eyzz3Z7r7y/mUfVyJ2SoicFR6BSjTxyK1qtOVL87N8ox/32268rmoCXtDQiZHs/ikgvSfcvokh193ceTertrbzz+fVJO8+ikVdkWo/8hF2RBu4ACAe5pGsxY0d+3JK80RKA2MFwrbXWKnkuK5GHxCKm9dDcmlRPPx2iYECOgidK6hIFV8TWOfKbu+eiSEv7TBaiipaQuXyUL6Z1yo587dZ8JB+uXz//fI899oitU0go9SbyWvuzFnySiDzyWZfgGa0h7YZNFAxX8oxP5FG8Q1cUHdsVLTUrecbHm/OpppqqpK9CrJt1rUSeNiTqvSIhUAmRRyt77CRa/g6j7VmtezSuPYcddpj72432v4h7pCvyq7tnGMeQvPPFViwmMQuRV2RaJ1AIk3OlIuZolo4ReS4SFwzHPaLan3zySXnMmu7jotZ5hvV/IqwzZLmWiCw/wzTP8jgRTPdEN6YJgRAEPoUBfES0+2Z63oFJlnXMsslB5G+3EZSh6ThuT28C7gjWEPGXn0kaZiDawEYmHP3gOnnmsccec8EbkhYe621ar7U/a8EnKdiNvQ3Y40CEJZL+kkDSWWGx1VZbySMlwW6SGP092f0NePbpp582kWZvWE/vi5jk/bRmn6tpvdk9oOVnRSCraZ2gUsZy3K2YzyOFxAYgh/tGSLkEXDM+IPzdxq3owZVKJDwSWZNt4HPe+WzhGf7LYlqviMhZE83gW6kQNczgSkfMN998LjskDNDiX+cGS73Y6ISNT0QgL4g8JHiWHshOPjyLX4R/IkLk7D4HeYtE2pzBB+0LSx1Yz80AjrA2kXoTrc7aRBEmBHxIvuDnlw+HdH5ghGhnJhrUWWSFFVawSx3kmo1piBnwfbJC5HQeG8AgtD0y9Us2u5ENEexsXyhClL2/65Gk+8d6EznEVkt/1oJPEpGz3pTJlgibEoGVL/wWAEtORISQ2QmKFQciLP9jH2eECNlzzjmnZDUDm04wCBRJlMiL1BtalzQEshA568T5O+Pvj51CWWLmj/lx72cMZaxFiJEh1ikU9jGRFVUoRuzolne+sE5J13UlcgKb2JJVtE4KZRkUO5uFwk45BGX5wnKpyH9plwb5G5ywjlDW/LFUgCUA/mDKO4TIGZRZIyyCxtwv2tyFACQ6Ay1LyI9nhMg5RwOPor05tcKmH6QRMEa5BD+xCYgIAz0fA7uVsRevTCx4PjIJu1key5Eg97gAP9II/hNhBsmyCNII8IN0/DJ5TogcXJjkIJTJZCEy59pr/sPKIVsTcg2hyG5GXMdJSOQsoyMwL02Y9DCRSPr1M+5X25+14JNE5KG2zeZC9CUBggiBiezq5E+ehMgjv3fJhInNIaJoWAdPZC63yw4lIVymKOnNPCqRNxN9LbsSBLIQOYFsKFOMQfxth9a1uPKwkPI820pjWWVjLf9nl1GA+OU0xgD4i/tI3vni6h6XloXIM/vIWVIVFeL+sawnzQ8YRf+6Z8kXkap9PpoFlaRzL9oFrivafacrAr/bPe5HRG7zRhHJ3e5H26J2RVpTV6TVd7snZVLP0H/Oe6Nd4boIrGOZAtfyLzKTl7RNgiDkPmWydCsiB7vETtI5koaflTJZmhYXUxB9XF2+T93PHxG5zRvizZKpaF15F/jRLj8P9Y8+xpI6x/VN6CP335F0TtvTlp/V0p+14JPkI6fd4bdH0MuCCy5o/8V9J+IjZ1lf+C0QI0EwDH5zfwkjeEW79JXFPK4fGpmmPvIYJ6MmFRKBcj7yaPtsN85FSpodTxkzkv6xpEwkUghd3mifDbtkONLqu6LdRLsiU7u7F+3QKFnsMe98JYUnXNTVR86mI9EAFI1f/5EoWrDEHy3pckTTZPtQEbbaY0bFJhvsooPmGSdoquxZ7mv+opGzNzf+aUzSccLmHDK74r6vkXPNpilnnXWWM5+TFgozOXbskm3/uI82vvPOOyfWWd6BKR7tz581ooGzFC1O2OeXGaO/Y5xo5MwWWWKBfzZNwAvzEb72chJq5OWe535E5DZWIEkj55lq+5O81eKTpJHzTiwv1Il99OMESwQ7PomIRs41PvUoeLDk+5Pn/CPmPTQKNP4iiWrkReoNrUsaAuU0ciyOuLeyCn5vWerM+BlN3kviieAVf4tY3K1sQMY4LJJ3Pik37ZhFI8/kI+cHM0JAo0j02B/OkAoxiOLrjiYZkmR9jFFEuiVGfLoXXHBByc47kCgmbkzXkL6IEDnX1AVy8ScVdBBmdjbHZ72vlOkP0PIuTKv9+/e3gUzyHPfw09NG3p30q218KPx0nk+85GUwx4eN6Z+Jii9MSJg80F7/I4JM8NWyP7y/i5wftMaEhbXtlBv3K3MLLLCA9c37P8Pnlx2esz2tvyY+vB93zYQN87n/u/MELLLXuAgTnWr7s1p8CLok+FKEGAy/33B54AdjIuTv7oRPH7eK357wO6EPCHzBteF/I5QVbSZkvxPePcEEE0jxhTkqkRemK7QiZRCAoOTHi+K2aIUL2Bciq8gWrfI8QcL8nTJh8Pcl4fc5GD9YP86OcKHknS8sP7yuG5GHL67XNcFS+LY5os3KZhv4upOIXMpmOz7IHE0f7YhjJULHUjb+fHzP0fpgO0hneQe+F/LiUyGf1DstL6RMlDcfCZaDnj17pj1eco9y2DaUujIZ4EOkTH6Nq0hSS3/Wgk8aBgTJRKY4+42xskA2gUjLI/eIt+DX7hhkmHBgPaG/iVkoqiiRF7VntF7NQoAxk6A5fOMEr/I3jCWznOSdL6k+hSfypIpnIfKkvJpePAS0P/PrEyXy/LDWkhSBPBBQIs8DZS2jLAJK5GUhqtsDSuR1g1JfpAgUAgEl8kJ0g1ZCiTy/b0CJPD+stSRFIA8EWpbIo6ViJZudsFtbpT7wPADWMrIhoP2ZDad6PKVEXg8U9R2KQHEQaFkiLw6EWhNFoLUQUCJvrf7S2ioC5RBQIi+HkN5XBNoMASXyNutQbU7HI6BE3vGfgALQaQgokXdaj2t72x0BJfJ272FtnyIQIKBEHgCil4pAiyOgRN7iHajVVwQqRUCJvFLE9HlFoNgIKJEXu3+0dopA3RFQIq87pPpCRaCpCCiRNxV+LVwRyB8BJfL8MdcSFYFGIqBE3kh09d2KQAERUCIvYKdolRSBGhBQIq8BPM2qCLQiAkrkrdhrWmdFIBkBJfJkbPSOItCWCCiRt2W3aqM6GIFMRD548OD//WB4B4OlTVcE2gEBfke9b9++7dAUbYMioAhkRKBH9JveSuQZwdLHFIGiI6AaedF7SOunCFSGQCaNXIm8MlD1aUWgyAgokRe5d7RuikDlCCiRV46Z5lAEWhoBJfKW7j6tvCLQDQEl8m6QaIIi0N4IKJG3d/9q6zoPASXyzutzbXGHI6BE3uEfgDa/7RBQIm+7LtUGKQLpCCiRp+OjdxWBVkNAibzVekzrqwjUiIASeY0AanZFoGAIKJEXrEO0OopAoxFQIm80wvp+RSBfBJTI88VbS1MEmo6AEnnTu0AroAjUFQEl8rrCqS9TBIqPgBJ58ftIa6gIVIKAEnklaOmzikAbIKBE3gadqE1QBDwElMg9MPRUEegEBJTIO6GXtY2dhIASeSf1trZVEYgQUCLXz0ARaC8ElMjbqz+1NYpAWQSUyMtCpA8oAi2FgBJ5S3WXVlYRqB0BJfLaMdQ3KAJFQqDuRP7jjz+ab775xrVx9NFHN9NMM427Dk8++OADlzTWWGOZKaec0l1Xe/Lrr7+aL774wmWfYIIJzMQTT+yuy518+eWX5pdffnGPTT/99GaUUUZx13mcgOMrr7xiXn31VYtnz549zcwzz2zmm28+M+aYY+ZRBS2jTRFQIm/TjtVmlSDQ1dVlevToUZJW7qKaPLwz73xhO+pO5FdeeaXp37+/K2fUUUc1Q4YMMXPNNZdLk5M///yzJH388cc3zz//vNyu+jhs2DCz4447uvwMXAcffLC7Lney0047mfvvv989dt999xmINA958cUXzSGHHGLeeuut2OKmnnpqs8cee5iNNtrIjDbaaLHPaKIikIaAEnkaOnqvlRG49tprzQUXXOAUoGmnndbMP//85sgjjzSLL754bNNuvPFGM2jQIJtn5MiRdqyfZ555zJ577mlWWWWV2Dwk5p0vsSLRjYYTOYUvsMAC5vrrr++m1YZEPt5445kXXnghrb6Z7rUikf/zzz9mwIAB5owzzjB///132XYut9xy5uKLL1YyL4uUPhAioEQeIqLX7YDA0UcfbY466qjYpqCZX3bZZWabbbYpud+nTx9z+eWXl6T5FwcddJA58cQT/SR7nne+bhUIEnIhcspES99yyy1Lilci/x8cxx13nLn00kv/l5DhrFevXoZ8KopAJQgokVeClj7bCgicffbZZq+99rJVXWSRRcxmm21m0KpvueUWq63iqkRRxNKJVROBwCFkBM39iCOOMHPOOadVJuGrb7/91t67++67zeqrr27P+S/vfK7glJPciBwQ7733XjP55JO76iiR/weKESNGmHXWWadEE8evv8suuxg+SrAbPny4ufnmm83bb7/t8OME8w4WDxVFICv4L3GjAAANnElEQVQCSuRZkdLnWgGBH374wcZW/fbbb2axxRYzjzzyiBljjDFc1c877zyz++6722u08m233daezzrrrOadd94xE000kXn55ZfNdNNN5/IQm7TQQgsZOArr50MPPeTu5Z3PFZxykhuRUwfI6qyzznLVqYTIP/nkE/P666+bN99809Bhs802m5ljjjkMoIaBaEmm9ddee80GkL377rtmpplmsp1OAFkoWX3kBOrR4dSLj4GOZxZYaTDadtttZx5++GFXDSY7zPpmn312l8bJZ599ZmeGfiDerrvuavbdd9+S57gAowcffNB89NFH5quvvrIm+AknnND6i5gcJPnXv//+e5vv448/tjNSJhEEIPIxpwUtdquAJhQWASXywnaNVqwKBCBnxlDisVCKwngmxsJ1113XfPfdd1ZTP/DAA+2YPffcc9vSiEk6/vjju5Us5nPe+/nnn5tJJ50093zdKpWQkCuRUweCCpZffnlbnSxEjknkpJNOMtdcc01sExZeeGHrw/AJOSRy/CK8B43WF/wmaL0ENfjEVo7IIUY6n3JCYSZ47LHH2mC08F7c9fvvv29WXXXVklsnn3xyYn784uAhsuCCC5obbrhBLm30JH72K664wvz0008u3T+ZZJJJzJlnnmmWXnppl0zUJe9lAkG/hAJWq622mjn11FPNOOOME97W6xZCQIm8hTpLq1oWgTXWWMPcc889Ztllly1RiNIyEpQt/nIUHuEkPw+c07t3b5tEwDOBb3nn8+uTdt5wIh933HHNzz//7OrAUq4777zTsNSsHJHjo1h//fXNp59+6vLHnUCel1xyiSOmkMjj8vhpmFrwj4ikETk+Fnz94j+RPOFxt912M/vss0+Y3O2aDxCtWgSSRTtP0uohXJ9omS3yT4TozMGDB8tl4pE8+H5k9nr66aeb888/P/F5ubHkkkuaq666Si712IIIKJG3YKdplRMRYMxkPEaBwjoJMT/11FPWWsr4hqUUHvEVEJ6VMZ/l0nHLk7G2zjvvvLbcgQMHmu23396WkWe+xEYHNxpO5DT+mWeeMS+99JIrGi14v/32K0vkBxxwQIkWTYetueaa1mcMWfv+Yn+CEEfkmN/XW289G9SAv4M12iKQ2m233WbN9aQlETkkShCFv0QOYsNUTdrjjz9uNWJ579ChQ62pXa7jjiyVOO2009ytFVZYwfDRVCN8zEsssYQhAh6hzURdonljjj/mmGNK2g3py6x05ZVXNh9++KHNN/bYY9s64bbAHUHUJmZ9kTvuuKOb2V/u6bH4CCiRF7+PtIbZEPjjjz+c0nPhhRdajfnRRx/tlpkgNhQcSB2B8LFcYon1FSM/I/uJTDHFFDYJKyl8lHc+vz5p5w0ncgYNZkMbbrihIxjAu/XWW6026K8vxx8ry8/wO0O8IvgnWMI2wwwz2KTff//d7hkNeYpAWqwfjyNyfPP46BE6DrL2Axi22GILw/IFJInIMc3TmSJ9oojHww8/XC6thosmLhLGBEi6f9x///3tOntJ23zzze2sT645QqRJrgXuE/A2yyyz2MnI3nvvTZIV/EKY0EWYWDCBEpGymJH6ayzx9z/wwAOGgDuESY7/HiwIrGNXaU0ElMhbs9+01t0RIJZHgtTYfIyxfaqpprJuQKyaTz75pA1kIyeKIMofR8ZpLJBwDm7XOCFdxkA0+MMOOyz3fHH1ikvLhcjZjIVgAvzjImix+Bsk4IB0n8ghLp8k8WPzz5fnnnvOasiShq+ECMWQyNkNLfSPYzbZYIMNJKslMjFJJxE5fnEmEyK8UzqaNDRhJi3sLIegEVMOH1iSZCFyJiiQdZKIhvzXX38ZJjgiuBzk42ZidMIJJ5inn35abhshcvIRa+AH0REYt/baa1sNn3sa6OZga/kTJfKW70JtwH8RwNLrr9rBskjMkJjKGZPhn1NOOcXmgENQ6liqxpK1NI2cwF+UGgQlD5N63vls4Rn+y43I8ZNjFvf93YCDeVfEJ3LuEbAlcvXVV1tSkWs5MhHAvIIQ8IbPOSRytHTIMBTMLDIbm2yyycwTTzxhH0kicrRQ30UQvi/uGjNP2razmIMIIBMh6MKf8JCelcjlHbgN8H+zpILIeiL+4zaZESInX7l17DPOOKON/MRVAsmrtC4CSuSt23da81IEiFJnBROCBk4Mk1ht5UnGPlYTseIJyyV5sFxC6LhVUWTihG2+ZezGKso4nHe+uHrFpeVG5BTOOnL84yJhIJxP5ACGSVfkpptuskun5FqOmIRlb3fexxanIZFjDoecQyHKUXy/RGXT0WjRSUSOr9nfwz18X9x1OT850ZA777yzy8o2tZC/H5jBx8nyBxGwYbYoIho5s09M57gtsohP5Pj/2ZAG/7xfVvgezFbXXXedaughMC10rUTeQp2lVU1FgLggTOXIMsssY9eQx2UQ3zbjO6t5UFxkMy2WpcUpJ2+88YbbQvzcc8+1ZnWsxHnmi2tLXFquRE4FIC3IK06EiLlHcAFblopAMqxl9oWZFDMt0Tbxt0NiIZGHUem8A+LC5M4aQwQ/y/Dhw+15EpFDfATuifTr169k2Zqk+0dMPRIw4afLOQFmPOML2wxuvfXWfpI7Z9JCgJ0EtHFDiByM5CMjnckAsQlYHrBWYH3Ary/iE7mkgQsBblgnMMMzqRBXgTwTl0/u6bH4CCiRF7+PtIbZEGC8YgUUVllcpfyuR5z4UeooKjwnyh1jnL8UV/Ljztxkk03sJTvEEbMFJ+WZT+pS7pg7kWPmxcTu+2Olkj6Rh4FlEFu4jy4/bCKg8g46kgjwkMjZfo80ZmMiLFHYYYcd5NKuIxSTdhKR4yMBMJE4bfu9996z5myewWwTTj4kr38keAyXgAg4EIjBDNMXyBsfz1133eUnOyLv27evDVKTmywTg/RFbr/9dreNIWlCyOxuxJJAEYL02DAHwed+zjnnGFwAIrgz+LBVWhMBJfLW7DetdTwCso6cDcLQouNkq622MrhnsXiyExyBzqwQQlh6G7dUmI1jxLdOkByrePLOF9eWuLTciZxKQJhxO+n4RM6v0LC/rfi/8X+wGYrMnDCJQ+4Qp4hspBISOfchZ4k4Z0MXOhZfiYgsiZNn4379LFzzzXaAaMCyGQ2dTfS7rDEnCCMtSE3Kpq18jH6gGkFqG2+8sV3ahrUAzZ2YAYLnQhGNnCh1/0Pmo5MgNawWDOD+DnJC5M8++6xh33YRlqT5sQvgxORLhA1sfGKXdD22BgJK5K3RT1rLbAiwhFf24kC5IuDYF+KEIHnGVza1YhzHmssOmpjVsZjivvTN6+yIyZI1FE588NxH8s7ntyPtvClEDqlg8iWS2hefyElHE/S3dEWjRhuE1DH/+iZfouCJdMfXHUfkvI+ALUgRP7q/6xmR55j7xdeSpJHzDkzT7OXrC1upio/dT4fswl3b/Pv+eRj05t8rdy5EzqzS94+zmQFkTVvBhKUYvtAHBNrxcS666KIlmDApIIaA2SuavawxJz9RoJCBSmsioETemv2mtY5HgLgl3KQcGcvxZ2MShydwEeJaFaUN5UaspMQToY0jKCpo4FhB4QIUtMcee8zeY4z0l+3mnc9Wosx/TSFy6gSZAjY+DpGQyNHG8akDfpqwGQxBWqIZh0TOUgTRkuPeQ6f5GmkakUNomOR9S0DcO9n7l3WHlQjBfZjvJZI+KS9WCfCTHfOEyJlgUK6PadI7SOeDll9cY5bK75xLvEFSPn7bF8sAgYkqrYmAEnlr9pvWOhkBrIorrriiU0Zwa7L81lf2iDr3f5IUbZstrv2NxVAW/fgjXJOMq7xPJO98Um7ase5EHq7/hohZKx0nBIv5232GRC55ME+zIYm/dI17kAkETBQ3u5GJYD6G0EToPDR4Guvv4oNJhbXV4iuR59ksgOVbImyO4i9pwETDTI7o7ZB00fpZ7oYmXI0QQ4DbgQ+TnYV8AR/cCfySD64AMZMLkfMs0f34dcK8fLDEGGD6l48b/NiRDmsCwgyUYA6CP8LJAL4lfOfMWv218zaj/tdSCCiRt1R3aWUzIkDcE1ZJf+dN1okTEE20uQSu+a9j9Q9jGsqJBD5zn0BheIBl0ATThZJ3vrD88LruRB4WUM9r/BnMnjAFQ5ji/81aBvn45TN80j2jPXgJ6BISy/qO8DmIlzox+6M+EH6t75QyIGMmILQblwJrIP2APXkuPDLRoJ3UjQ0NaKe4DcJn466//vprmxeTPBo6Ex7wxlSl0voIKJG3fh9qC5IRwL/NGI/yQYBaHBGHudHCGTPJy3jJeJdlHM87X1hvuW4pIpdK61ERUASqR0CJvHrsNKciUEQElMiL2CtaJ0WggQgokTcQXH21ItAEBJTImwC6FqkINBMBJfJmoq9lKwL1R0CJvP6Y6hsVgUIjoERe6O7RyikCFSOgRF4xZJpBEWhtBJTIW7v/tPaKQIiAEnmIiF4rAm2OgBJ5m3ewNq/jEFAi77gu1wZ3OgJK5J3+BWj72w0BJfJ261FtjyJQBgEl8jIA6W1FoMUQUCJvsQ7T6ioCtSKgRF4rgppfESgWAkrkxeoPrY0i0HAElMgbDrEWoAjkioASea5wa2GKQPMRUCJvfh9oDRSBeiKgRF5PNPVdikALIKBE3gKdpFVUBCpAIAuR/z+MeM6KcHGtNAAAAABJRU5ErkJggg==;" vertex="1" parent="1">
          <mxGeometry x="440" y="640" width="286.35" height="230" as="geometry" />
        </mxCell>
      </root>
    </mxGraphModel>
  </diagram>
</mxfile>
